<svg width="246" height="60" viewBox="0 0 246 60" fill="none" xmlns="http://www.w3.org/2000/svg">
<path d="M135.959 49.2588L145.485 49.2158L140.76 60L135.959 49.2588Z" fill="white"/>
<path d="M145.268 10.6769L154.254 3.8938L153.549 15.8285L145.268 10.6769Z" fill="white"/>
<path d="M127.904 44.1542L136.201 49.2759L127.238 56.0933L127.904 44.1542Z" fill="white"/>
<path d="M153.367 15.6525L164.229 14.6222L158.243 24.6165L153.367 15.6525Z" fill="white"/>
<path d="M123.203 35.3621L128.111 44.3002L117.253 45.3821L123.203 35.3621Z" fill="white"/>
<path d="M158.167 24.3546L168.077 29.3389L158.373 34.7911L158.167 24.3546Z" fill="white"/>
<path d="M113.388 30.6697L123.072 25.1746L123.314 35.6067L113.388 30.6697Z" fill="white"/>
<path d="M153.917 43.7121L158.436 34.5249L164.811 44.223L153.917 43.7121Z" fill="white"/>
<path d="M116.639 15.777L127.532 16.245L123.049 25.4493L116.639 15.777Z" fill="white"/>
<path d="M146.021 49.0656L154.088 43.5232L155.265 55.4107L146.021 49.0656Z" fill="white"/>
<path d="M126.168 4.58069L135.436 10.8829L127.389 16.4639L126.168 4.58069Z" fill="white"/>
<path d="M139.512 0L144.733 10.5052L135.223 10.9989L139.512 0Z" fill="white"/>
<path d="M140.384 10.0114C130.212 10.0114 121.967 18.941 121.967 29.957C121.967 40.9731 130.212 49.9027 140.384 49.9027C150.557 49.9027 158.802 40.9731 158.802 29.957C158.798 18.941 150.553 10.0114 140.384 10.0114ZM152.654 30.4722C152.396 37.6416 146.695 43.2183 139.921 42.935C133.146 42.6517 127.858 36.6113 128.115 29.4419C128.373 22.2724 134.073 16.6957 140.848 16.9791C147.623 17.2624 152.907 23.3028 152.654 30.4722Z" fill="white"/>
<path d="M5.06624 17.5329C3.43695 17.2496 1.81164 16.9662 0 16.6485C4.01573 11.2006 7.92046 5.89867 11.8847 0.523743C18.2155 1.8546 24.5502 3.18974 31.0634 4.55923C30.3499 5.4436 29.7354 6.22065 29.1011 6.98053C26.9288 9.59501 24.7524 12.2052 22.5721 14.8111C22.4492 14.9571 22.2669 15.0386 22.1083 15.1502C22.0568 14.8884 22.0092 14.6265 21.9577 14.3646C22.1281 13.3643 22.3025 12.364 22.4611 11.4239C17.6724 8.44876 11.7419 10.0672 8.64194 14.8411C9.10971 15.5967 9.58938 16.3695 10.0334 17.0821C10.4139 16.6872 10.7033 16.3781 10.9967 16.0733C10.9689 16.7473 10.9412 17.4213 10.9174 18.0953C10.9134 18.1683 10.9095 18.2413 10.9055 18.3142C10.8857 18.4087 10.8659 18.4988 10.846 18.5933C9.1335 18.3099 7.41701 18.0309 5.70447 17.7476C5.49437 17.6789 5.2803 17.6059 5.06624 17.5329Z" fill="#010101"/>
<path d="M238.867 40.166C238.803 39.874 238.74 39.5778 238.677 39.2859C238.427 38.6033 238.177 37.9207 237.9 37.1565C237.61 36.6757 237.42 36.1176 237.257 35.5767C237.099 35.04 236.96 34.4819 236.905 33.9196C236.738 33.2498 236.568 32.5758 236.397 31.8975C236.29 31.6442 236.183 31.3909 236.076 31.1376C235.933 30.7513 235.783 30.3692 235.656 29.9785C235.2 28.5575 234.788 27.115 234.296 25.7069C233.317 22.9164 232.29 20.1474 231.295 17.3655C230.871 16.1849 230.463 15.0429 229.123 14.7038C226.986 14.1671 224.838 14.0383 222.673 14.3732C221.349 14.575 220.148 15.0257 219.561 16.5326C219.347 17.0778 218.994 17.5544 218.721 18.0738C217.734 19.9756 216.727 21.8646 215.775 23.7879C214.697 25.9645 213.659 28.1582 212.624 30.3606C211.288 33.2069 209.952 36.0575 208.656 38.9296C207.867 40.6768 207.086 42.437 206.432 44.2487C205.98 45.4937 205.869 46.6099 206.729 47.2624C207.217 47.6359 207.72 48.0137 208.267 48.2713C210.158 49.1643 212.041 50.083 213.976 50.8471C215.633 51.4997 216.326 51.2593 217.151 49.7567C217.516 49.0913 217.769 48.3486 218.023 47.623C218.451 46.4167 218.84 45.1932 219.244 43.9825H228.1C228.572 45.9187 228.984 47.7905 229.484 49.6279C229.892 51.1219 230.637 51.7616 232.088 51.6929C233.594 51.6242 235.105 51.4181 236.583 51.109C237.507 50.9158 238.407 50.4736 239.267 50.0315C240.564 49.3703 240.944 47.6402 240.373 45.6955C239.834 43.8623 239.366 42.012 238.867 40.166ZM238.589 49.0355C236.445 50.1388 234.161 50.5981 231.791 50.5166C231.149 50.4951 230.764 50.0615 230.605 49.439C230.173 47.7046 229.769 45.9659 229.365 44.2229C229.262 43.7722 229.198 43.3085 229.107 42.7933H218.388C217.555 45.1674 217.056 47.6917 215.653 49.9756C212.553 49.3832 209.849 47.8506 207.082 46.1806C207.982 42.9221 209.377 39.99 210.773 37.0621L212.358 33.6062C213.131 31.992 213.904 30.3735 214.681 28.7593C215.553 26.9347 216.406 25.1016 217.306 23.2942C218.253 21.3924 219.323 19.5592 220.199 17.623C220.858 16.172 221.9 15.6225 223.28 15.4593C225.044 15.2533 226.78 15.3606 228.508 15.777C229.218 15.9487 229.714 16.3394 229.979 17.1036C230.697 19.1728 231.446 21.2249 232.183 23.2856L233.935 28.4416C234.407 29.9098 234.879 31.3781 235.351 32.8463L235.355 32.8635C235.402 32.9622 235.45 33.0566 235.497 33.1554C235.525 33.194 235.557 33.2327 235.573 33.2799C235.581 33.2971 235.557 33.3271 235.549 33.3529C236.849 37.9336 238.169 42.51 239.434 47.1036C239.731 48.1511 239.521 48.5546 238.589 49.0355Z" fill="white"/>
<path d="M21.962 14.3646C22.0135 14.6265 22.0611 14.8884 22.1126 15.1503C22.1642 15.9745 22.2395 16.7988 22.2593 17.6274C22.2831 18.7436 22.2672 19.864 22.2672 21.1262C22.513 20.8944 22.739 20.7141 22.9292 20.4951C24.4515 18.765 25.9579 17.0134 27.492 15.2962C28.1422 14.5707 28.7962 13.8194 29.5494 13.2355C31.0994 12.0335 31.4285 11.8961 33.2203 13.2828C35.1707 14.7853 36.9863 16.4897 38.457 18.5761C39.2498 19.7009 39.2934 20.6883 38.3658 21.7058C35.9952 24.3074 33.589 26.8703 31.1906 29.4419C31.1232 29.5106 31.0202 29.5406 30.8576 29.6265C31.9874 30.9917 33.026 32.2453 34.0647 33.4988C34.7703 34.3489 35.4918 35.186 36.1776 36.0532C37.3153 37.4914 38.453 38.9296 39.5471 40.4064C40.0268 41.0504 40.4351 41.763 40.8117 42.4843C41.2953 43.403 41.002 44.3088 40.4787 45.0429C39.0952 46.9791 37.5531 48.7693 35.6543 50.1259C35.028 50.5724 34.3263 50.9373 33.6127 51.182C32.808 51.4611 32.0191 51.2378 31.4443 50.5295C30.1599 48.9582 28.828 47.417 27.6506 45.7556C26.1046 43.5747 24.6854 41.2908 23.2107 39.0498C23.0997 38.8824 22.9689 38.7321 22.7865 38.5003C22.4416 38.9124 22.1602 39.2516 21.8668 39.6036C21.9342 41.2521 22.0492 42.8921 22.0571 44.5321C22.065 45.8329 21.9818 47.1337 21.8668 48.4302C21.7796 49.3875 21.2088 49.9671 20.3486 50.1903C17.9502 50.8214 15.54 50.9373 13.1179 50.3792C11.7344 50.0615 11.1635 49.3961 11.1278 47.842C10.9653 40.8829 10.8186 33.9196 10.7275 26.9562C10.6918 24.17 10.8067 21.3795 10.8543 18.5933C10.8741 18.4988 10.894 18.4087 10.9138 18.3142C10.9177 18.2413 10.9217 18.1683 10.9257 18.0953C10.9534 17.4213 10.9812 16.7473 11.005 16.0733C11.0446 15.6654 11.0882 15.2576 11.1239 14.8497C11.223 13.7292 11.7027 13.0724 12.7135 12.8191C15.0762 12.2224 17.4507 12.1236 19.8451 12.6474C20.8044 12.862 21.5973 13.2913 21.962 14.3646ZM12.2695 14.2144C12.1704 15.7985 12.0198 17.198 12 18.5976C11.9207 24.8569 11.8216 31.1162 11.8493 37.3798C11.8652 40.9216 12.107 44.4634 12.2418 48.0094C12.2656 48.6577 12.5986 49.0226 13.1417 49.1643C15.4607 49.7825 17.7679 49.6837 20.0671 49.0226C20.6062 48.8681 20.8639 48.4688 20.8837 47.8806C20.9194 46.8117 20.9947 45.7427 20.9709 44.678C20.9273 42.8277 20.8163 40.9817 20.741 39.2043C21.522 38.3672 22.2633 37.5687 23.0323 36.7487C23.1235 36.8689 23.2384 37.002 23.3296 37.148C24.4634 38.8995 25.5377 40.6983 26.7349 42.3941C28.4157 44.7725 30.152 47.1122 31.9438 49.3918C32.7049 50.362 33.3709 50.435 34.2946 49.6666C35.7534 48.443 37.1409 47.1122 38.4847 45.7427C39.1031 45.1159 39.5511 44.2873 40.1378 43.4631C36.9863 38.393 33.0498 34.1643 29.3829 29.6651C32.3482 26.5355 35.4957 23.6935 38.128 20.1345C36.245 17.3225 33.9457 15.2104 31.258 13.3472C27.3176 16.6915 24.2335 20.8686 20.7291 24.8483C20.7925 23.9854 20.8679 23.2985 20.8877 22.6073C20.9511 20.3148 21.0463 18.0223 21.0185 15.7298C20.9987 14.3088 20.7212 13.9396 19.409 13.7979C17.7916 13.6219 16.1544 13.6391 14.5252 13.6906C13.7878 13.7164 13.0584 14.0212 12.2695 14.2144ZM22.1324 21.1477C22.1324 21.1648 22.1324 21.1777 22.1324 21.1949C22.176 21.1949 22.2197 21.1949 22.2633 21.1949C22.2633 21.1777 22.2633 21.1648 22.2633 21.1477C22.2197 21.1477 22.176 21.1477 22.1324 21.1477Z" fill="white"/>
<path d="M78.7839 48.4817C76.4133 49.3017 74.0903 50.3749 71.6642 50.8858C67.5296 51.7573 63.3275 52.2038 59.1215 51.2722C57.5279 50.9202 57.0007 50.2547 56.9888 48.4645C56.9293 41.4754 56.85 34.4906 56.8778 27.5014C56.8897 24.4061 57.1156 21.3108 57.2742 18.2198C57.3693 16.3609 58.2375 15.3263 59.9183 14.7896C62.721 13.8967 65.5475 14.1328 68.366 14.5793C69.9556 14.8326 71.5374 15.1631 73.0992 15.5581C75.5372 16.1806 77.6977 17.417 79.7076 19.0398C82.0226 20.9116 83.862 23.217 85.2693 25.913C86.4467 28.1669 87.0809 30.6526 87.0373 33.237C87.0017 35.3105 86.7202 37.3798 86.4665 39.4405C86.3912 40.063 86.0384 40.6425 85.8164 41.2479C85.7133 41.5269 85.6261 41.8145 85.5309 42.0979C85.5904 42.1451 85.6459 42.1923 85.7054 42.2396C86.1652 41.7158 86.6132 41.1749 87.0968 40.6769C87.2554 40.5137 87.5012 40.4536 87.7113 40.3506C87.7905 40.7284 87.846 41.1105 87.957 41.4797C88.3653 42.8277 88.7895 44.1714 89.2097 45.5152C88.2543 46.5927 87.2792 47.6531 86.3515 48.7607C85.9908 49.19 85.745 49.7267 85.4477 50.2161C85.305 50.2161 85.1583 50.2161 85.0156 50.2161C84.8729 49.4605 84.7223 48.7092 84.5835 47.9536C84.3655 46.7473 84.1514 45.5409 83.9532 44.4119C83.5845 44.2315 83.2872 44.0856 82.9859 43.9439C86.8153 38.3629 86.8986 32.4814 84.199 26.3681C84.1435 26.2736 84.088 26.1835 84.0365 26.089C82.9423 23.8867 81.3725 22.1179 79.664 20.4737C79.6203 20.229 79.5767 19.98 79.4935 19.5077C79.323 19.8383 79.2636 19.9542 79.2081 20.0701C78.9861 19.9156 78.7562 19.7739 78.5421 19.6108C77.0753 18.4946 75.5491 17.4728 73.7851 17.0478C71.5096 16.5026 69.2223 16.0218 66.923 15.601C64.9647 15.2447 62.9866 15.1889 61.0402 15.7127C58.5031 16.3953 58.5427 16.9018 58.4 19.0698C57.8609 27.2224 57.7658 35.3835 57.8649 43.5532C57.8887 45.5538 58.067 47.5501 58.1701 49.5421C58.5507 49.7267 58.7965 49.9113 59.066 49.9628C60.2037 50.1732 61.3415 50.478 62.4831 50.508C68.1361 50.654 73.6106 49.7009 78.8037 47.1594C78.7879 47.6016 78.7839 48.0395 78.7839 48.4817ZM85.416 42.2138C85.2336 42.4886 85.0473 42.7633 84.865 43.0424C84.9363 43.0896 85.0037 43.1368 85.0751 43.184C85.2495 42.9265 85.4279 42.6689 85.6023 42.4113C85.5389 42.3469 85.4794 42.2825 85.416 42.2138Z" fill="white"/>
<path d="M140.816 48.4087C138.604 48.5332 136.467 48.0309 134.465 47.1422C131.805 45.9573 129.47 44.1757 127.536 41.8188C126.018 39.9685 124.773 37.9207 124.039 35.5895C123.167 32.8205 122.949 29.9527 123.362 27.0206C123.786 23.9982 124.995 21.358 126.668 18.9796C127.901 17.2281 129.439 15.7899 131.183 14.5921C134.315 12.4413 137.692 11.2993 141.403 11.4367C144.614 11.5526 147.543 12.6388 150.29 14.4676C152.403 15.8757 154.076 17.7475 155.519 19.8511C156.574 21.3923 157.323 23.1439 157.802 25.0329C158.48 27.7032 158.512 30.4164 158.135 33.0867C157.759 35.7741 156.748 38.2813 155.139 40.4192C154.195 41.6728 153.2 42.9178 152.066 43.9653C151.02 44.9313 149.823 45.7684 148.582 46.4081C147.163 47.1422 145.644 47.7089 144.118 48.1253C143.064 48.4215 141.918 48.3314 140.816 48.4087ZM124.345 30.9487C124.372 31.3694 124.4 31.7902 124.424 32.2109C124.499 32.5715 124.575 32.9321 124.646 33.2927C124.686 33.4559 124.721 33.6147 124.761 33.7779C124.828 34.1041 124.872 34.4433 124.971 34.761C125.847 37.5515 127.298 39.9556 129.248 41.9862C131.579 44.4161 134.303 46.1977 137.494 46.8674C143.298 48.0824 148.344 46.3265 152.538 41.8445C154.825 39.4018 156.399 36.4825 156.954 32.9965C157.398 30.8543 157.41 28.7163 156.93 26.5784C156.613 24.7109 156.042 22.9507 155 21.4009C154.956 21.2807 154.932 21.1476 154.865 21.0446C152.578 17.3096 149.47 14.7681 145.517 13.4115C142.077 12.2309 138.659 12.4069 135.314 13.6863C133.157 14.5105 131.175 15.7856 129.49 17.5071C127.671 19.366 126.156 21.4653 125.324 24.0669C124.713 25.4579 124.361 26.9132 124.353 28.463C124.345 28.6176 124.337 28.7764 124.329 28.931C124.337 29.6007 124.341 30.2747 124.345 30.9487Z" fill="white"/>
<path d="M88.7227 41.3251C88.7504 41.0719 88.8019 40.8186 88.8059 40.5653C88.8495 35.7141 88.8455 30.8586 88.9407 26.0117C89.0041 22.8649 89.1111 19.7095 89.3847 16.5799C89.5789 14.326 90.5462 13.227 93.1388 12.9823C95.8304 12.7247 98.5895 12.7805 101.269 13.1368C103.604 13.4502 105.955 14.1457 108.139 15.0902C110.498 16.1119 112.571 17.8034 114.264 19.9027C115.362 21.2636 116.416 22.6975 117.277 24.2387C118.422 26.2908 118.942 28.6133 119.104 31.0046C119.267 33.3615 119.112 35.7055 118.521 37.9851C117.855 40.5567 116.539 42.7032 114.644 44.4205C112.987 45.923 111.061 46.8847 109.055 47.7261C106.229 48.9153 103.291 49.6237 100.31 49.9113C97.5866 50.1732 94.8235 50.0658 92.0883 49.9156C91.0893 49.8598 89.9912 49.5335 89.234 48.6062C89.5551 48.0867 89.8723 47.5673 90.1934 47.0478C90.2409 47.3784 90.2925 47.7047 90.3638 48.1898C91.1131 48.3872 91.8623 48.7049 92.6313 48.7736C98.871 49.3489 104.912 48.4946 110.66 45.6955C113.975 44.0813 116.405 41.5656 117.404 37.6589C117.443 37.5215 117.487 37.3884 117.526 37.251C119.029 30.9144 117.562 25.4064 113.487 20.6797C109.55 16.1119 104.413 14.5621 98.8908 14.0427C98.8313 14.0384 98.7758 14.0384 98.7164 14.0341C98.431 14.0126 98.1416 13.9868 97.8561 13.9654C96.8532 13.9611 95.8542 13.9525 94.8513 13.9482C94.657 13.9654 94.4588 13.9825 94.2646 14.004C93.9197 14.0641 93.5788 14.1242 93.2339 14.18H93.226C92.8771 14.2788 92.5322 14.3818 92.1834 14.4805C92.0922 14.5235 92.001 14.5621 91.9059 14.605C91.8345 14.6566 91.7632 14.7038 91.6958 14.7553L91.6363 14.7725C91.561 14.8197 91.4897 14.8669 91.4143 14.9141C91.3826 14.897 91.3628 14.9056 91.3469 14.9399C91.2558 15.0086 91.1686 15.0773 91.0774 15.1417C91.0258 15.1975 90.9783 15.2533 90.9267 15.3091C90.8197 15.5023 90.6453 15.6869 90.6215 15.8887C90.5184 16.889 90.459 17.8978 90.3797 18.9024C90.3718 19.1128 90.3599 19.3231 90.3519 19.5292C90.3321 19.8941 90.3123 20.259 90.2964 20.6239C90.2766 21.255 90.2568 21.8861 90.237 22.5129C90.2053 23.2942 90.1735 24.0756 90.1418 24.8569C90.1339 24.9642 90.126 25.0673 90.1181 25.1746C90.0626 27.3641 90.011 29.5535 89.9555 31.743C89.9753 35.8601 89.9952 39.9814 90.0071 44.0985C90.011 44.7725 89.9833 45.4422 89.9714 46.1162C89.5591 44.5192 89.1389 42.9222 88.7227 41.3251Z" fill="white"/>
<path d="M174.206 40.8357C174.206 41.9562 174.226 43.1497 174.202 44.3432C174.178 45.4851 174.131 46.6314 174.047 47.7733C173.96 48.984 173.072 49.9241 171.871 49.9585C169.877 50.0143 167.879 50.0272 165.885 49.9542C164.232 49.8941 163.534 49.1085 163.4 47.2753C163.15 43.8795 162.853 40.488 162.738 37.0836C162.547 31.6399 162.472 26.192 162.393 20.7441C162.377 19.6022 162.543 18.4602 162.654 17.3182C162.765 16.1978 163.447 15.4679 164.303 15.0215C168.767 12.686 173.508 12.2911 178.313 13.0982C180.664 13.4931 182.832 14.6394 184.747 16.2536C186.162 17.447 187.395 18.7865 188.287 20.4994C189.064 21.9934 189.722 23.5089 189.71 25.2604C189.702 26.6643 189.757 28.0896 189.567 29.4719C189.306 31.3738 188.449 33.0524 187.379 34.5807C185.147 37.7833 182.15 39.6422 178.527 40.312C177.139 40.5738 175.728 40.6597 174.206 40.8357ZM173.064 39.2816C173.334 39.2988 173.54 39.3031 173.746 39.3288C177.762 39.8225 181.405 38.848 184.564 36.0661C189.099 32.0735 189.781 25.5438 187.319 21.0618C185.623 17.9708 183.042 16.0475 179.954 14.854C177.135 13.7679 174.246 13.7035 171.328 14.1242C169.227 14.429 167.15 14.8841 165.215 15.8887C164.414 16.3051 163.709 16.8288 163.653 17.9407C163.586 19.3188 163.419 20.6969 163.431 22.075C163.471 26.192 163.526 30.3134 163.673 34.4262C163.8 37.9937 164.042 41.5569 164.268 45.1202C164.335 46.2021 164.525 47.2753 164.668 48.4302C167.411 49.1213 170.048 49.2373 172.783 48.4559C173.294 45.3735 172.993 42.3512 173.064 39.2816Z" fill="white"/>
<path d="M43.8997 23.8266C42.0801 22.2939 41.2913 20.3921 41.4419 17.988C41.537 16.4253 42.1317 15.1975 43.1624 14.1671C45.632 11.7029 49.842 11.8059 51.7964 13.9439C54.1471 16.5154 53.937 20.4822 51.1819 23.8695C51.2057 23.9124 51.2216 23.9768 51.2572 23.9897C52.7517 24.5478 53.0213 24.9127 53.0371 26.66C53.0887 32.5243 53.1283 38.393 53.1481 44.2573C53.1521 45.8457 53.0847 47.4385 53.0173 49.0269C52.9499 50.6239 52.498 51.1305 51.0194 51.152C48.6884 51.1906 46.3535 51.182 44.0226 51.1391C43.0078 51.1219 42.4647 50.5424 42.3695 49.4562C42.1713 47.1508 41.9255 44.8454 41.8581 42.5358C41.7075 37.354 41.6282 32.1723 41.5727 26.9905C41.545 24.9213 41.9295 24.4662 43.8997 23.8266ZM43.0395 25.591C42.976 25.6597 42.9166 25.7284 42.8531 25.7971C42.8254 25.9516 42.7976 26.1105 42.7739 26.265C42.7263 27.4585 42.6748 28.6563 42.6272 29.8497C42.6589 31.9276 42.6906 34.0097 42.7223 36.0876C42.7144 36.1648 42.6906 36.2421 42.6946 36.3194C42.9324 40.5524 43.1742 44.7896 43.42 49.0226C43.4359 49.2716 43.5271 49.5163 43.6143 49.8984C46.3496 50.1731 49.0531 50.2204 51.9311 49.8168C51.9311 48.5332 51.9311 47.3955 51.9311 46.2579L51.9629 46.2192L51.9351 46.1763C51.947 45.5796 51.9589 44.9871 51.9708 44.3904C51.9747 44.2015 51.9787 44.0126 51.9827 43.8194C51.9866 43.4502 51.9866 43.0767 51.9906 42.7075C52.0065 39.9428 52.0184 37.178 52.0342 34.409C52.0263 33.6706 52.0184 32.9322 52.0144 32.198C52.0104 32.0006 52.0065 31.8031 52.0065 31.6013C51.9985 31.0132 51.9906 30.4293 51.9787 29.8412C51.943 28.3772 51.9034 26.9176 51.8677 25.4536C51.5585 25.3935 51.4515 25.3291 51.3365 25.2991C48.847 24.6723 46.3456 24.668 43.8402 25.1359C43.5627 25.1875 43.313 25.4236 43.0474 25.5738L43.0395 25.591ZM42.5519 18.7564C42.4845 20.7913 43.5469 22.105 45.0057 23.1139C46.6826 24.273 49.0333 24.1142 50.4763 22.822C52.058 21.4096 52.7676 18.7521 52.0699 16.8417C51.6735 16.1205 51.4118 15.2361 50.8568 14.7081C49.2395 13.1583 46.7341 13.0681 44.859 14.3432C43.3606 15.3563 42.3418 16.6829 42.5519 18.7564Z" fill="white"/>
<path d="M194.448 23.8566C192.668 22.2596 191.673 20.4092 191.891 17.9922C192.034 16.4124 192.708 15.1073 193.802 14.0855C196.47 11.5956 200.632 11.8531 202.539 14.1414C204.755 16.8031 204.422 20.9072 201.694 23.8695C201.706 23.8909 201.718 23.9296 201.734 23.9339C203.316 24.2859 203.605 25.4879 203.605 27.0249C203.605 32.8377 203.688 38.6505 203.696 44.4676C203.7 46.2106 203.621 47.9579 203.455 49.688C203.351 50.7269 202.907 51.1176 201.964 51.1348C199.463 51.182 196.961 51.1777 194.46 51.1348C193.576 51.1219 193.064 50.5423 192.946 49.5549C192.803 48.3657 192.688 47.1723 192.62 45.9745C192.482 43.5618 192.355 41.1534 192.272 38.7364C192.157 35.405 192.073 32.0735 192.006 28.7421C191.99 27.862 192.077 26.9734 192.153 26.0933C192.268 24.7195 193.152 24.17 194.448 23.8566ZM202.531 29.854C202.563 29.8068 202.559 29.7596 202.523 29.7166C202.495 28.7249 202.467 27.7289 202.44 26.7372C202.428 26.5827 202.412 26.4281 202.4 26.2736C202.388 26.1663 202.376 26.0546 202.364 25.9473C202.186 25.7455 202.008 25.5438 201.829 25.3377C201.492 25.2518 201.155 25.1703 200.818 25.0844C200.767 25.0801 200.719 25.0758 200.668 25.0672C200.521 25.0543 200.378 25.0372 200.232 25.0243C200.137 25.0114 200.037 24.9985 199.942 24.9857C199.459 24.9556 198.975 24.9256 198.491 24.8955C198.452 24.8526 198.412 24.8526 198.368 24.8869C198.214 24.8869 198.059 24.8826 197.905 24.8826C197.576 24.8783 197.251 24.8783 196.922 24.874C196.149 24.9513 195.376 25.0329 194.606 25.1102C194.432 25.1617 194.262 25.2132 194.087 25.2647C194.016 25.2862 193.941 25.3076 193.869 25.3248C193.786 25.3763 193.699 25.4236 193.615 25.4751C193.572 25.4879 193.548 25.518 193.54 25.5652C193.477 25.7412 193.409 25.9215 193.346 26.0976C193.33 26.2049 193.314 26.3122 193.298 26.4195C193.286 26.5269 193.275 26.6299 193.263 26.7372C193.251 29.3388 193.235 31.9447 193.223 34.5463C193.231 34.761 193.239 34.9756 193.247 35.1903C193.255 35.4479 193.259 35.7012 193.267 35.9588C193.278 36.2679 193.294 36.5813 193.306 36.8904C193.338 37.7833 193.37 38.672 193.401 39.5649C193.417 40.0329 193.437 40.5008 193.453 40.9688C193.465 41.1834 193.477 41.3981 193.493 41.6127C193.465 41.66 193.469 41.7029 193.504 41.7415C193.52 42.1623 193.536 42.583 193.552 43.008C193.568 43.2656 193.584 43.5232 193.6 43.785C193.635 44.4118 193.675 45.0429 193.711 45.6697C193.722 45.8242 193.73 45.9788 193.742 46.1333C193.782 46.6614 193.822 47.1851 193.861 47.7132C193.869 47.8119 193.881 47.915 193.889 48.0137C193.917 48.2284 193.944 48.4387 193.976 48.6534C193.992 48.8594 194.008 49.0612 194.024 49.2673C194.055 49.3875 194.087 49.5034 194.119 49.6236C194.178 49.6794 194.238 49.7395 194.293 49.7953L194.325 49.8254L194.369 49.8168C194.492 49.8554 194.618 49.8941 194.741 49.9327C195.177 49.9713 195.617 50.01 196.053 50.0486C197.393 50.0443 198.737 50.0443 200.077 50.04C200.616 49.9971 201.155 49.9542 201.69 49.9112C201.897 49.8168 202.103 49.7224 202.309 49.6279C202.337 49.4004 202.368 49.1771 202.396 48.9496C202.408 48.795 202.416 48.6405 202.428 48.4859C202.452 47.7518 202.475 47.0134 202.495 46.2793C202.531 46.2364 202.531 46.1977 202.499 46.1505C202.511 45.3606 202.523 44.5664 202.535 43.7764C202.551 42.2653 202.567 40.7541 202.586 39.243C202.586 39.1442 202.586 39.0412 202.59 38.9424C202.606 36.7659 202.634 34.5893 202.638 32.417C202.638 31.67 202.574 30.923 202.543 30.1803C202.539 30.0772 202.535 29.9656 202.531 29.854ZM202.884 18.4173C202.903 15.5237 201.072 13.5189 198.372 13.4759C195.483 13.4287 192.989 15.7727 192.965 18.5589C192.942 21.3065 195.38 23.8695 198.032 23.8866C200.838 23.9081 202.86 21.6285 202.884 18.4173Z" fill="white"/>
<path d="M90.1928 47.0478C89.8717 47.5672 89.5546 48.0867 89.2335 48.6062C88.8212 49.1299 88.397 49.6408 88.0046 50.1817C87.2712 51.1992 86.5616 52.2381 85.8203 53.3028C84.1236 52.354 82.4825 51.4482 80.8492 50.5252C80.3378 50.2375 79.8304 49.9413 79.3547 49.5979C79.1684 49.4648 79.0733 49.1814 78.9385 48.9668C79.0376 48.7049 79.1367 48.443 79.2358 48.1769C79.327 48.3185 79.4181 48.4559 79.5252 48.6147C79.6679 48.6147 79.8027 48.6147 79.9374 48.6147C81.7649 49.6623 83.5924 50.7055 85.4794 51.7873C86.3119 50.5466 87.0651 49.4176 87.8222 48.2928C88.2583 47.6703 88.7261 47.0692 89.1106 46.4167C89.2454 46.1892 89.178 45.82 89.2057 45.5152C88.7855 44.1714 88.3614 42.8277 87.953 41.4797C87.842 41.1148 87.7865 40.7284 87.7073 40.3506C87.8579 40.3935 88.0085 40.4364 88.0165 40.4407C88.3098 40.8057 88.516 41.0632 88.7221 41.3251C89.1423 42.9221 89.5585 44.5235 89.9787 46.1205C90.0461 46.4253 90.1175 46.7344 90.1928 47.0478Z" fill="#010101"/>
<path d="M5.06651 17.5329C5.28057 17.6059 5.49464 17.6789 5.70474 17.7518C5.5105 19.7138 5.28057 21.6757 5.14975 23.6462C5.10615 24.3202 5.2885 25.0114 5.39553 25.6897C5.44707 26.016 5.566 26.3251 5.69681 26.7888C4.75333 26.7372 3.92085 26.69 2.92188 26.6299C3.19144 26.1062 3.33415 25.6897 3.5839 25.3678C4.52341 24.1614 4.47584 22.6674 4.65423 21.2421C4.80883 20.01 4.93172 18.7693 5.06651 17.5329Z" fill="#FD7B24"/>
<path d="M79.2365 48.1769C79.1374 48.4387 79.0383 48.7006 78.9392 48.9668C78.8877 48.8036 78.8361 48.6448 78.7846 48.4817C78.7886 48.0438 78.7925 47.6059 78.7965 47.168C78.7846 46.9319 78.7727 46.6915 78.7608 46.4553C78.7608 45.4035 78.7449 44.3474 78.7767 43.2956C78.7806 43.1153 78.9907 42.9393 79.1057 42.7633C79.1493 44.5621 79.1929 46.3695 79.2365 48.1769Z" fill="#383838"/>
<path d="M21.9623 14.3646C21.5976 13.2914 20.8047 12.8621 19.8375 12.6517C17.4471 12.128 15.0685 12.2267 12.7059 12.8234C11.695 13.081 11.2193 13.7336 11.1162 14.8541C11.0806 15.2619 11.037 15.6697 10.9973 16.0776C10.704 16.3824 10.4146 16.6915 10.034 17.0865C9.59002 16.3738 9.11035 15.5968 8.64258 14.8455C11.7426 10.0716 17.673 8.45308 22.4618 11.4282C22.3072 12.3641 22.1327 13.3644 21.9623 14.3646Z" fill="#383838"/>
<path d="M10.9211 18.0996C10.9171 18.1726 10.9131 18.2456 10.9092 18.3186C10.9092 18.2456 10.9131 18.1726 10.9211 18.0996Z" fill="#666666"/>
<path d="M233.938 28.4373C234.41 29.9056 234.881 31.3738 235.353 32.842C235.175 33.3615 234.996 33.8809 234.818 34.3918C235.627 34.9542 238.98 46.6142 238.727 48.164C236.511 49.5421 234.025 49.7954 231.274 49.7997C230.703 47.2281 230.16 44.7725 229.593 42.2181C229.26 42.1752 228.888 42.085 228.515 42.0807C225.574 42.0721 222.636 42.0764 219.695 42.0721C219.457 42.0721 219.211 42.0678 218.977 42.0292C218.208 41.9004 217.871 42.1279 217.637 42.9179C217.471 43.4803 217.277 44.0384 217.066 44.5836C217.023 44.6909 216.848 44.7424 216.809 44.7682C216.932 46.391 215.893 47.5329 215.58 49.0613C212.698 48.8165 210.434 47.2024 207.913 45.9101C208.714 42.7633 210.272 40.093 211.354 37.1308C211.136 37.1007 210.958 37.075 210.779 37.0535C211.306 35.903 211.838 34.7524 212.365 33.5976C212.531 33.7135 212.698 33.8294 212.928 33.9926C213.697 32.3397 214.414 30.7899 215.16 29.1843C214.977 29.0169 214.831 28.8838 214.684 28.7507C215.556 26.9262 216.408 25.093 217.308 23.2856C218.256 21.3838 219.326 19.5507 220.202 17.6145C220.86 16.1634 221.903 15.6139 223.282 15.4508C225.046 15.2447 226.783 15.352 228.511 15.7685C229.221 15.9402 229.716 16.3309 229.982 17.095C230.699 19.1643 231.448 21.2164 232.186 23.277C232.035 23.3801 231.885 23.4831 231.73 23.5904C231.647 23.4359 231.54 23.2899 231.48 23.1225C230.897 21.5126 230.362 19.8812 229.728 18.2928C229.447 17.5887 229.26 16.6013 228.444 16.4639C227.064 16.2364 225.688 15.7942 224.261 16.0733C223.837 16.1548 223.409 16.1892 222.981 16.2364C222.351 16.3051 221.72 16.4081 221.364 17.065C220.396 18.8423 219.441 20.6196 218.497 22.4098C218.026 23.3114 217.598 24.2387 217.15 25.1574C216.527 26.4239 215.905 27.686 215.251 29.0126C216.527 29.5707 217.776 29.7338 219.045 29.6093C220.301 29.4848 221.554 29.2659 222.807 29.0899C222.236 30.6139 221.665 32.138 221.09 33.6706C221.209 33.9024 221.32 34.1299 221.439 34.3575C221.867 34.3875 222.271 34.4176 222.676 34.4476C222.43 34.5764 222.192 34.7868 221.934 34.8168C219.635 35.0916 217.336 35.2247 215.057 34.6537C214.315 34.4691 213.578 34.2544 212.817 34.0441C212.373 35.0401 211.953 35.9803 211.528 36.929C211.655 36.9805 211.703 37.0235 211.743 37.0149C214.347 36.4697 216.963 36.8303 219.572 36.9161C221.494 36.9762 223.425 37.1179 225.336 36.9977C227.651 36.8517 229.855 36.0447 232.007 35.1431C233.018 34.7181 233.962 34.0999 234.933 33.5675C234.414 31.992 233.958 30.6053 233.526 29.2916C231.508 30.5152 229.605 31.6657 227.714 32.8334C227.564 32.9236 227.48 33.1425 227.365 33.3014C227.298 32.9536 227.239 32.6016 227.159 32.2582C226.806 30.7384 226.446 29.223 226.089 27.7032C227.972 26.3809 229.855 25.0544 231.738 23.7321C232.313 25.488 232.887 27.2439 233.462 28.9997C233.53 28.9997 233.597 28.9997 233.664 28.9997C233.76 28.8194 233.851 28.6305 233.938 28.4373Z" fill="#994BDC"/>
<path d="M210.776 37.0578C210.954 37.0836 211.133 37.105 211.351 37.1351C210.268 40.0973 208.714 42.7676 207.91 45.9144C210.431 47.2023 212.694 48.8208 215.576 49.0655C215.89 47.5372 216.928 46.3952 216.805 44.7725C216.845 44.7467 217.023 44.6952 217.063 44.5879C217.273 44.0426 217.463 43.4845 217.634 42.9221C217.868 42.1322 218.205 41.9047 218.974 42.0335C219.212 42.0721 219.453 42.0764 219.691 42.0764C222.629 42.0807 225.57 42.0764 228.512 42.0893C228.884 42.0893 229.261 42.1794 229.59 42.2267C230.157 44.781 230.7 47.2367 231.271 49.8082C234.018 49.8039 236.507 49.5506 238.723 48.1726C238.977 46.6271 235.623 34.9628 234.815 34.4004C234.989 33.8895 235.171 33.37 235.35 32.8506L235.354 32.8678C235.366 32.9665 235.378 33.0695 235.389 33.1683C235.441 33.2284 235.497 33.2928 235.548 33.3529C236.848 37.9336 238.168 42.51 239.433 47.1036C239.722 48.1597 239.512 48.5632 238.581 49.0441C236.436 50.1474 234.153 50.6067 231.782 50.5252C231.14 50.5037 230.755 50.0701 230.597 49.4476C230.165 47.7132 229.76 45.9745 229.356 44.2315C229.253 43.7808 229.189 43.3171 229.098 42.8019C225.519 42.8019 221.967 42.8019 218.379 42.8019C217.547 45.176 217.047 47.7003 215.644 49.9842C212.544 49.3918 209.84 47.8592 207.073 46.1892C207.985 42.9178 209.38 39.9857 210.776 37.0578Z" fill="#7231C6"/>
<path d="M233.938 28.4373C233.847 28.6305 233.756 28.8194 233.669 29.0126C233.602 29.0126 233.534 29.0126 233.467 29.0126C232.892 27.2567 232.317 25.5008 231.742 23.745C231.746 23.6934 231.742 23.6462 231.734 23.5947C231.885 23.4917 232.036 23.3886 232.19 23.2813C232.773 25.0028 233.356 26.7201 233.938 28.4373Z" fill="#7231C6"/>
<path d="M214.685 28.755C214.832 28.8881 214.975 29.0212 215.161 29.1886C214.416 30.7942 213.698 32.344 212.929 33.9968C212.695 33.8337 212.529 33.7178 212.366 33.6019C213.135 31.9877 213.908 30.3735 214.685 28.755Z" fill="#7231C6"/>
<path d="M235.398 33.164C235.386 33.0652 235.374 32.9622 235.362 32.8635C235.41 32.9622 235.457 33.0609 235.505 33.1554C235.465 33.1511 235.43 33.1554 235.398 33.164Z" fill="#994BDC"/>
<path d="M235.398 33.164C235.434 33.1554 235.47 33.1554 235.502 33.1554C235.529 33.194 235.561 33.2327 235.577 33.2799C235.585 33.2971 235.561 33.3271 235.553 33.3529C235.502 33.2842 235.45 33.2241 235.398 33.164Z" fill="#BD77EF"/>
<path d="M245.871 22.2081C245.871 22.3454 245.871 22.4828 245.875 22.6202C245.871 22.4828 245.871 22.3454 245.871 22.2081Z" fill="#AEAEAE"/>
<path d="M12.2694 14.2143C13.0583 14.0255 13.7877 13.7206 14.529 13.6949C16.1544 13.6434 17.7955 13.6305 19.4129 13.8022C20.7251 13.9439 21.0065 14.3131 21.0224 15.7341C21.0541 18.0266 20.955 20.3191 20.8916 22.6116C20.8717 23.2985 20.7964 23.9854 20.733 24.8526C24.2373 20.8729 27.3215 16.6957 31.2619 13.3514C33.9456 15.2103 36.2449 17.3225 38.1318 20.1388C35.4996 23.6977 32.352 26.5398 29.3868 29.6694C33.0537 34.1686 36.9901 38.3929 40.1417 43.4588C39.555 44.283 39.107 45.1116 38.4886 45.7384C37.1447 47.1079 35.7573 48.443 34.2984 49.6623C33.3748 50.435 32.7088 50.3577 31.9477 49.3875C30.1559 47.1079 28.4196 44.7682 26.7387 42.3898C25.5376 40.694 24.4633 38.8952 23.3335 37.1437C23.2384 36.9977 23.1274 36.8689 23.0362 36.7444C22.2711 37.5687 21.5258 38.3672 20.7449 39.2C20.8242 40.9774 20.9312 42.8234 20.9748 44.6737C20.9986 45.7384 20.9233 46.8074 20.8876 47.8763C20.8678 48.4645 20.6101 48.8637 20.071 49.0183C17.7757 49.6794 15.4646 49.7739 13.1455 49.16C12.6024 49.014 12.2694 48.6534 12.2457 48.0051C12.1109 44.4633 11.8651 40.9216 11.8532 37.3755C11.8294 31.1162 11.9285 24.8569 12.0038 18.5933C12.0157 17.198 12.1664 15.7985 12.2694 14.2143ZM30.2352 27.6731C31.583 26.3208 32.9268 24.9685 34.2747 23.6119C35.3054 22.4742 36.34 21.3366 37.3628 20.2118C36.9941 19.6666 36.788 19.2372 36.4788 18.9281C35.2261 17.6617 33.9615 16.4038 32.6573 15.1932C32.2133 14.781 31.805 14.1457 30.9606 14.4118C29.5573 15.8715 28.0548 17.3397 26.6595 18.9196C24.8914 20.9158 23.2106 22.998 21.502 25.0501C21.1492 25.4751 20.7647 25.6769 20.1384 25.4794C20.1384 24.9256 20.1225 24.3632 20.1423 23.8008C20.2256 21.1562 20.3009 18.5117 20.4238 15.8715C20.4595 15.0515 20.1225 14.4419 19.1077 14.3775C17.4863 14.2787 15.8531 14.3303 14.2278 14.3861C13.7798 14.4032 13.3358 14.6522 12.9751 14.7682C12.9037 14.9742 12.876 15.0214 12.872 15.0687C12.7689 16.7516 12.6421 18.4344 12.5747 20.1216C12.4954 22.1222 12.4518 24.1271 12.4201 26.1319C12.4003 27.4757 12.4241 28.8237 12.428 30.1717C12.428 31.524 12.428 32.8763 12.428 34.2287C12.4756 35.1216 12.5232 36.0146 12.5707 36.9075C12.6223 40.0329 12.6698 43.154 12.7333 46.2793C12.7412 46.7687 12.7491 47.2839 12.8918 47.739C12.983 48.0395 13.2922 48.4516 13.534 48.4731C15.0325 48.6276 16.5428 48.7822 18.0453 48.735C18.7786 48.7135 19.6627 48.7822 20.3485 47.8248C20.2811 44.9442 20.2058 41.9133 20.1344 38.8265C20.959 37.8778 21.7994 36.9075 22.6279 35.9502C22.9292 35.9716 23.163 35.9845 23.4286 36.0017C23.6903 36.4568 23.9162 36.9118 24.1937 37.3283C25.1729 38.7965 26.152 40.269 27.1629 41.7115C28.6931 43.901 30.2391 46.0818 31.8089 48.237C32.1697 48.7307 32.6692 49.1042 33.0894 49.5206C35.6146 48.2069 37.3667 46.1677 39 43.9868C39.2814 43.6133 39.2418 43.2012 38.9207 42.7848C37.6958 41.2049 36.5025 39.5864 35.2895 37.998C34.4213 36.8603 33.5532 35.7226 32.6533 34.615C31.3848 33.0566 30.0885 31.5283 28.8041 29.9871C29.034 29.5106 29.2362 29.0169 29.5057 28.5704C29.7 28.2398 29.9894 27.9694 30.2352 27.6731Z" fill="#A1191D"/>
<path d="M22.1318 21.1476C22.1754 21.1476 22.2191 21.1476 22.2627 21.1476C22.2627 21.1648 22.2627 21.1777 22.2627 21.1949C22.2191 21.1949 22.1754 21.1949 22.1318 21.1949C22.1318 21.182 22.1318 21.1648 22.1318 21.1476Z" fill="#666666"/>
<path d="M78.7571 46.451C78.769 46.6915 78.7809 46.9276 78.7927 47.1637C73.6036 49.7052 68.1291 50.6626 62.4722 50.5123C61.3305 50.4822 60.1888 50.1817 59.055 49.9671C58.7855 49.9156 58.5357 49.731 58.1591 49.5464C58.0521 47.5544 57.8777 45.5581 57.8539 43.5575C57.7548 35.3921 57.8499 27.2267 58.3891 19.0741C58.5318 16.9061 58.4961 16.3995 61.0292 15.7169C62.9756 15.1932 64.9577 15.249 66.9121 15.6053C69.2073 16.026 71.4986 16.5026 73.7741 17.0521C75.5381 17.4771 77.0644 18.4945 78.5311 19.615C78.7452 19.7782 78.9751 19.9241 79.1971 20.0744C79.3517 20.2075 79.5023 20.3406 79.6569 20.4779C81.3655 22.1222 82.9393 23.8866 84.0294 26.0933C84.0849 26.1877 84.1404 26.2779 84.192 26.3723C86.8916 32.4814 86.8044 38.3672 82.9789 43.9482C82.638 43.8022 82.3011 43.6563 81.9601 43.5146C82.2059 43.3772 82.5151 43.2999 82.6895 43.0896C83.8193 41.7373 84.517 40.1574 84.7232 38.3371C84.8183 38.1955 84.9729 38.0667 84.9967 37.9164C85.1156 37.1222 85.2227 36.328 85.294 35.5295C85.3535 34.864 85.405 34.19 85.3812 33.5203C85.3535 32.8248 85.2346 32.1336 85.1553 31.4382C84.9452 30.5753 84.8144 29.678 84.5051 28.858C84.184 28.008 83.6965 27.2352 83.2802 26.4239C83.2366 26.2521 83.2406 26.0461 83.1494 25.9173C82.3605 24.7796 81.6589 23.5389 80.7392 22.5429C78.3725 19.9885 75.6214 18.0609 72.2915 17.3225C68.8585 16.5627 65.4295 15.5967 61.8775 16.2707C61.0252 16.4339 60.1095 16.7043 59.4356 17.241C59.0867 17.5157 59.2057 18.4817 59.1145 19.1385C59.1066 19.19 59.1066 19.2415 59.1026 19.2931C58.9678 21.6714 58.8291 24.0541 58.6943 26.4324C58.6467 27.7805 58.5912 29.1285 58.5595 30.4722C58.5516 30.7427 58.6428 31.0131 58.6903 31.2879C58.6428 31.5412 58.5595 31.7902 58.5516 32.0435C58.4961 33.8766 58.4525 35.7098 58.4049 37.5429C58.3692 41.4281 58.5199 45.3005 58.8449 49.2974C60.4108 49.512 61.8736 49.8855 63.3364 49.8812C65.7981 49.8726 68.2639 49.7052 70.678 49.0741C71.6968 48.8079 72.7751 48.7693 73.7701 48.4302C75.4589 47.8463 77.1 47.1165 78.7571 46.451Z" fill="#E85814"/>
<path d="M81.9597 43.506C82.3007 43.652 82.6376 43.7979 82.9785 43.9396C83.2759 44.0856 83.5771 44.2315 83.9458 44.4075C84.148 45.5366 84.3581 46.743 84.5761 47.9493C84.7149 48.7049 84.8615 49.4562 85.0082 50.2118L84.9805 50.2418C83.375 49.4133 81.7734 48.5847 80.0649 47.7046C80.0014 48.164 79.9697 48.3872 79.938 48.6105C79.8032 48.6105 79.6684 48.6105 79.5257 48.6105C79.4227 48.4516 79.3315 48.3099 79.2363 48.1726C79.1927 46.3652 79.1491 44.5621 79.1016 42.7547C79.1412 42.613 79.1809 42.4757 79.2245 42.3082C80.0807 42.6646 80.9053 43.008 81.7298 43.3514C81.8051 43.3987 81.8844 43.4459 81.9597 43.4931V43.506Z" fill="white"/>
<path d="M89.2063 45.5151C89.1825 45.8199 89.246 46.1849 89.1112 46.4167C88.7267 47.0735 88.2549 47.6746 87.8228 48.2928C87.1608 48.2928 86.9587 48.9625 86.5384 49.3188C86.1777 49.6236 85.8328 49.9456 85.48 50.259L85.4443 50.2203C85.7416 49.7309 85.9914 49.1943 86.3482 48.765C87.2718 47.6531 88.251 46.5927 89.2063 45.5151Z" fill="#EFF7F7"/>
<path d="M85.6026 42.4112C85.4281 42.6688 85.2498 42.9264 85.0753 43.184C85.004 43.1368 84.9366 43.0895 84.8652 43.0423C85.0476 42.7676 85.2339 42.4928 85.4163 42.2137C85.4797 42.2824 85.5391 42.3468 85.6026 42.4112Z" fill="#AEAEAE"/>
<path d="M79.6561 20.4736C79.5015 20.3405 79.3509 20.2075 79.1963 20.0701C79.2558 19.9542 79.3152 19.8383 79.4817 19.5077C79.5689 19.9799 79.6125 20.2289 79.6561 20.4736Z" fill="white"/>
<path d="M85.0073 50.2161C85.15 50.2161 85.2967 50.2161 85.4394 50.2161L85.4751 50.2547C85.4116 50.3449 85.3482 50.4393 85.2095 50.6411C85.1064 50.4651 85.039 50.3534 84.9756 50.2461L85.0073 50.2161Z" fill="#EFF7F7"/>
<path d="M84.1948 26.368C84.1393 26.2736 84.0838 26.1834 84.0322 26.089C84.0838 26.1834 84.1393 26.2736 84.1948 26.368Z" fill="#FC9836"/>
<path d="M85.6033 42.4112C85.5399 42.3468 85.4804 42.2781 85.417 42.2137C85.4804 42.2824 85.5399 42.3468 85.6033 42.4112Z" fill="#666666"/>
<path d="M156.954 32.9965C156.403 36.4825 154.825 39.4018 152.538 41.8445C148.344 46.3265 143.297 48.0824 137.494 46.8674C134.303 46.1977 131.579 44.4161 129.248 41.9862C127.298 39.9556 125.847 37.5515 124.971 34.761C124.872 34.4433 124.832 34.1084 124.761 33.7779C124.907 34.0183 125.054 34.2587 125.145 34.4089C125.47 34.1299 125.768 33.8766 126.065 33.6233C126.283 34.3059 126.446 35.0229 126.735 35.6711C127.805 38.0538 129.236 40.1144 131.103 41.8832C132.697 43.3943 134.525 44.4805 136.447 45.1202C138.663 45.8586 141.046 46.1376 143.396 45.5237C144.253 45.3005 145.164 45.2275 145.953 44.8454C147.23 44.2272 148.463 43.4716 149.644 42.6559C150.445 42.1021 151.182 41.4024 151.836 40.6554C152.518 39.8697 153.16 39.0068 153.652 38.0752C154.322 36.8002 154.833 35.4307 155.416 34.0998C155.463 33.9925 155.511 33.8895 155.555 33.7822C155.555 33.7306 155.559 33.6791 155.559 33.6319C156.026 33.4129 156.49 33.2026 156.954 32.9965Z" fill="#F9B414"/>
<path d="M125.324 24.0627C126.153 21.4611 127.671 19.3618 129.491 17.5029C131.175 15.7813 133.157 14.5106 135.314 13.682C138.66 12.4027 142.077 12.2267 145.518 13.4073C149.474 14.7639 152.582 17.3054 154.865 21.0403C154.929 21.1434 154.957 21.2765 155 21.3967C154.469 21.7101 154.374 22.2338 154.402 22.822C154.306 22.8177 154.211 22.8134 154.116 22.8091C154.021 22.5472 153.922 22.2896 153.827 22.0278C153.411 21.3452 153.058 20.6025 152.566 19.9928C151.975 19.263 151.325 18.5547 150.592 18.0094C149.165 16.949 147.75 15.7727 146.164 15.0901C144.574 14.4033 142.83 14.0383 141.062 14.0383C138.501 14.0426 136.035 14.6222 133.808 15.9273C130.846 17.6617 128.44 20.0959 126.938 23.4445C126.842 23.599 126.743 23.7579 126.648 23.9124C126.208 23.9639 125.768 24.0154 125.324 24.0627Z" fill="#F9C60B"/>
<path d="M156.954 32.9965C156.49 33.2069 156.026 33.4129 155.562 33.6233C155.57 33.4688 155.555 33.3056 155.59 33.1597C155.995 31.4896 155.951 29.7939 155.84 28.0938C155.828 27.8963 155.662 27.7074 155.566 27.5143C155.614 27.3039 155.658 27.0935 155.705 26.8875C156.114 26.7844 156.526 26.6814 156.934 26.5784C157.41 28.7163 157.402 30.8543 156.954 32.9965Z" fill="#F9C60B"/>
<path d="M156.93 26.5784C156.522 26.6814 156.113 26.7845 155.701 26.8875C155.269 25.5352 154.833 24.1786 154.401 22.8262C154.369 22.2381 154.464 21.71 155 21.4009C156.046 22.9507 156.613 24.7066 156.93 26.5784Z" fill="#F9B414"/>
<path d="M126.065 33.6234C125.768 33.8767 125.471 34.1299 125.146 34.409C125.055 34.263 124.908 34.0183 124.761 33.7779C124.722 33.6148 124.686 33.4559 124.646 33.2928C124.722 32.9665 124.801 32.6402 124.884 32.271C124.686 32.2453 124.555 32.2281 124.42 32.2109C124.393 31.7902 124.365 31.3695 124.341 30.9488C124.337 30.2748 124.333 29.5965 124.329 28.9224C124.337 28.7679 124.345 28.609 124.353 28.4545C124.777 28.403 125.205 28.3472 125.629 28.2957C125.625 28.579 125.594 28.8666 125.621 29.15C125.76 30.5882 125.915 32.0263 126.065 33.4645C126.069 33.516 126.069 33.5676 126.065 33.6234Z" fill="#F9C60B"/>
<path d="M125.633 28.2956C125.209 28.3472 124.781 28.403 124.356 28.4545C124.364 26.909 124.717 25.4493 125.328 24.0584C125.768 24.0112 126.208 23.9596 126.648 23.9124C126.592 24.1872 126.541 24.4662 126.481 24.741C126.247 25.8228 126.013 26.9004 125.78 27.9823C125.728 28.0853 125.68 28.1926 125.633 28.2956Z" fill="#F9B414"/>
<path d="M124.333 28.9224C124.337 29.5964 124.341 30.2747 124.345 30.9487C124.341 30.2747 124.337 29.6007 124.333 28.9224Z" fill="#F9B414"/>
<path d="M124.424 32.2109C124.555 32.2281 124.689 32.2453 124.888 32.271C124.8 32.6402 124.725 32.9665 124.65 33.2928C124.574 32.9322 124.499 32.5716 124.424 32.2109Z" fill="#F9B414"/>
<path d="M90.1938 47.0478C90.1224 46.7387 90.0511 46.4296 89.9797 46.1205C89.9916 45.4508 90.0154 44.7767 90.0154 44.1027C89.9995 39.9857 89.9797 35.8643 89.9639 31.7473C90.0035 32.4814 90.055 33.2112 90.0749 33.9453C90.0868 34.2759 90.0868 34.5764 90.503 34.5549C90.5506 38.071 90.5902 41.587 90.6576 45.103C90.6735 45.923 90.7963 46.743 90.8875 47.7733C92.4692 47.9622 94.047 48.2584 95.6327 48.3099C97.0439 48.3572 98.475 48.2155 99.8783 48.0094C101.789 47.7261 103.692 47.3397 105.583 46.9233C106.273 46.773 106.903 46.3137 107.593 46.172C109.531 45.777 111.188 44.751 112.754 43.5489C113.479 42.9908 114.015 42.1494 114.708 41.5312C115.442 40.8829 115.834 40.0801 115.993 39.1056C116.171 38.9382 116.353 38.7707 116.524 38.6119C116.524 38.3071 116.524 38.0753 116.524 37.8434C116.702 37.4012 116.968 36.9805 117.043 36.5169C117.249 35.2504 117.376 33.9668 117.535 32.6917C117.388 31.4639 117.293 30.2189 117.075 29.0083C116.968 28.433 116.623 27.905 116.381 27.3597C116.381 27.3082 116.381 27.2567 116.381 27.2052C116.052 26.3036 115.842 25.3162 115.366 24.5134C113.975 22.1737 112.247 20.1731 110.11 18.5504C107.941 16.9061 105.571 15.9359 103.002 15.4636C101.258 15.1417 99.5057 14.8669 97.7495 14.6565C95.4463 14.3818 93.155 14.3131 91.165 16.0818C90.9946 18.984 90.8281 21.8303 90.6616 24.6766C90.5506 24.7281 90.4396 24.7796 90.3286 24.8311C90.3008 24.0627 90.2731 23.2942 90.2453 22.5257C90.2651 21.8947 90.285 21.2636 90.3048 20.6368C90.3246 20.2719 90.3444 19.907 90.3603 19.5421C90.3682 19.3317 90.3801 19.1213 90.388 18.9153C90.4673 18.8036 90.6061 18.7006 90.618 18.5847C90.7329 17.4986 90.8281 16.4124 90.9311 15.322C90.9827 15.2662 91.0302 15.2103 91.0818 15.1545C91.1729 15.0858 91.2602 15.0172 91.3513 14.9528C91.3632 14.9184 91.387 14.9098 91.4187 14.927C91.494 14.8798 91.5654 14.8326 91.6407 14.7853L91.7002 14.7682C91.7715 14.7166 91.8429 14.6651 91.9103 14.6179C92.0015 14.575 92.0926 14.5363 92.1878 14.4934C92.5366 14.3947 92.8815 14.2916 93.2304 14.1929H93.2383C93.5832 14.1328 93.9241 14.0727 94.269 14.0169C94.4632 13.9997 94.6614 13.9825 94.8557 13.9611C95.8586 13.9654 96.8576 13.9739 97.8605 13.9782C98.146 13.9997 98.4353 14.0255 98.7208 14.0469C98.7802 14.0512 98.8357 14.0512 98.8952 14.0555C104.417 14.575 109.555 16.1248 113.491 20.6926C117.563 25.4193 119.029 30.9273 117.531 37.2639C117.491 37.4012 117.448 37.5343 117.408 37.6717C116.409 41.5784 113.979 44.0984 110.665 45.7083C104.917 48.5031 98.8754 49.3617 92.6357 48.7865C91.8706 48.7135 91.1214 48.4001 90.3682 48.2026C90.2889 47.7046 90.2414 47.3741 90.1938 47.0478Z" fill="#E85814"/>
<path d="M90.3243 24.8268C90.4353 24.7753 90.5463 24.7238 90.6573 24.6723C91.1211 24.5735 91.5809 24.4662 92.0448 24.3803C94.0387 24.0283 95.9931 24.1313 97.8761 25.0071C97.8245 26.9476 97.769 28.8924 97.7175 30.8328C97.3845 30.6997 97.0357 30.5967 96.7225 30.4207C95.6086 29.7853 94.4708 29.2702 93.1666 29.3818C92.2033 29.4633 91.2361 29.5277 90.1974 29.605C90.1974 29.1972 90.2054 28.8108 90.1974 28.4287C90.1737 27.3426 90.1459 26.2607 90.1182 25.1746C90.1261 25.0672 90.134 24.9642 90.1419 24.8569C90.2054 24.8526 90.2648 24.8397 90.3243 24.8268Z" fill="#E25A01"/>
<path d="M90.1224 25.1788C90.1502 26.265 90.1779 27.3468 90.2017 28.433C90.2096 28.8151 90.2017 29.2014 90.2017 29.6093C91.2403 29.532 92.2036 29.4676 93.1709 29.386C94.4711 29.2744 95.6089 29.7896 96.7268 30.425C97.0399 30.601 97.3888 30.6997 97.7218 30.8371C97.7257 31.876 97.7337 32.915 97.7376 33.9496C96.9369 33.8423 96.1361 33.6705 95.3274 33.6362C93.6664 33.5718 92.053 33.8852 90.503 34.5506C90.0868 34.5721 90.0868 34.2716 90.0749 33.941C90.0511 33.2069 89.9995 32.4771 89.9639 31.7429C90.0154 29.5578 90.0669 27.3683 90.1224 25.1788Z" fill="#FD7B24"/>
<path d="M90.9347 15.3134C90.8316 16.3995 90.7365 17.4899 90.6215 18.5761C90.6096 18.6963 90.4709 18.7993 90.3916 18.9067C90.4669 17.9021 90.5303 16.8932 90.6334 15.8929C90.6532 15.6911 90.8277 15.5065 90.9347 15.3134Z" fill="#FD7B24"/>
<path d="M90.3239 24.8268C90.2644 24.8397 90.205 24.8526 90.1455 24.8612C90.1772 24.0798 90.2089 23.2985 90.2406 22.5172C90.2724 23.2899 90.3001 24.0584 90.3239 24.8268Z" fill="#FD7B24"/>
<path d="M97.8593 13.9654C96.8564 13.9611 95.8574 13.9525 94.8545 13.9482C95.8535 13.9525 96.8564 13.9611 97.8593 13.9654Z" fill="#FD7B24"/>
<path d="M90.3602 19.5334C90.3404 19.8984 90.3205 20.2633 90.3047 20.6282C90.3245 20.2633 90.3443 19.8984 90.3602 19.5334Z" fill="#FD7B24"/>
<path d="M93.2301 14.18C92.8812 14.2787 92.5363 14.3818 92.1875 14.4805C92.5363 14.3818 92.8852 14.283 93.2301 14.18Z" fill="#FD7B24"/>
<path d="M94.269 14.004C93.9241 14.0641 93.5832 14.1242 93.2383 14.18C93.5832 14.1199 93.9241 14.0641 94.269 14.004Z" fill="#FD7B24"/>
<path d="M117.404 37.6588C117.444 37.5214 117.488 37.3884 117.527 37.251C117.484 37.3884 117.444 37.5214 117.404 37.6588Z" fill="#FC9836"/>
<path d="M91.3555 14.9399C91.2643 15.0086 91.1771 15.0773 91.0859 15.1417C91.1771 15.0773 91.2643 15.0086 91.3555 14.9399Z" fill="#FD7B24"/>
<path d="M91.6439 14.7767C91.5686 14.824 91.4972 14.8712 91.4219 14.9184C91.4932 14.8669 91.5686 14.824 91.6439 14.7767Z" fill="#FD7B24"/>
<path d="M91.9132 14.605C91.8419 14.6566 91.7745 14.7081 91.7031 14.7553C91.7705 14.7081 91.8419 14.6566 91.9132 14.605Z" fill="#FD7B24"/>
<path d="M98.8951 14.0426C98.8357 14.0384 98.7802 14.0384 98.7207 14.0341C98.7802 14.0384 98.8357 14.0426 98.8951 14.0426Z" fill="#FD7B24"/>
<path d="M173.065 39.2816C172.994 42.3512 173.295 45.3735 172.792 48.4473C170.056 49.2287 167.42 49.1127 164.677 48.4216C164.534 47.2667 164.344 46.1935 164.276 45.1116C164.051 41.5483 163.809 37.9851 163.682 34.4176C163.535 30.3005 163.48 26.1834 163.44 22.0664C163.428 20.6883 163.595 19.3102 163.662 17.9322C163.718 16.8245 164.423 16.2965 165.224 15.8801C167.155 14.8755 169.236 14.4204 171.337 14.1156C174.254 13.6949 177.144 13.7593 179.963 14.8454C183.055 16.0389 185.632 17.9622 187.328 21.0532C189.79 25.5395 189.108 32.0692 184.573 36.0575C181.41 38.8394 177.767 39.8182 173.755 39.3202C173.541 39.3031 173.331 39.2988 173.065 39.2816ZM187.384 22.9593C186.912 21.3022 185.909 20.0186 184.855 18.7779C184.767 18.6749 184.605 18.6491 184.478 18.589C183.424 17.7647 182.468 16.6786 181.303 16.1634C178.548 14.9442 175.678 14.1113 172.633 14.6694C171.222 14.927 169.791 15.0944 168.403 15.4593C167.147 15.7899 165.937 16.3394 164.582 16.8374C164.459 17.6359 164.312 18.3529 164.241 19.0741C164.122 20.3105 164.011 21.5512 163.971 22.7919C163.944 23.6334 164.051 24.4834 164.094 25.3248C164.142 27.0979 164.189 28.8709 164.237 30.6439C164.241 31.6872 164.245 32.7304 164.249 33.7693C164.53 38.4445 164.633 43.1368 165.224 47.7819C165.553 47.8849 165.779 47.9837 166.009 48.0266C167.694 48.3357 169.394 48.3529 171.079 48.1168C172.427 47.9279 172.336 48.0352 172.34 46.4425C172.34 44.4977 172.328 42.5529 172.348 40.6082C172.356 39.9771 172.439 39.3417 172.482 38.7579C172.863 38.6291 173.089 38.5518 173.251 38.496C173.592 38.6033 173.862 38.7536 174.139 38.7707C176.034 38.8909 177.905 38.7192 179.733 38.1182C182.234 37.2939 184.323 35.7828 185.897 33.5289C186.464 32.7218 186.793 31.7172 187.233 30.8071C187.34 30.6311 187.507 30.4679 187.546 30.2747C187.717 29.502 187.859 28.7206 187.99 27.935C188.272 26.2135 188.042 24.5564 187.384 22.9593Z" fill="#14A2CD"/>
<path d="M51.974 44.3903C51.9621 44.9871 51.9502 45.5795 51.9383 46.1763C51.9066 46.202 51.9066 46.2278 51.9343 46.2578C51.9343 47.3955 51.9343 48.5332 51.9343 49.8168C49.0524 50.2203 46.3528 50.1731 43.6175 49.8984C43.5303 49.5163 43.4391 49.2716 43.4232 49.0226C43.1735 44.7896 42.9356 40.5523 42.6978 36.3194C42.6938 36.2421 42.7136 36.1648 42.7255 36.0875C42.7493 35.7398 42.7255 35.3792 42.8127 35.0529C42.8643 34.8597 43.0863 34.7223 43.2329 34.5592C43.4827 39.3932 43.7364 44.2315 43.9941 49.2115C46.5034 49.5377 48.8304 49.6408 51.2406 49.1256C51.312 47.3612 51.3794 45.7341 51.4388 44.1027C51.4547 43.6348 51.4547 43.1668 51.4586 42.6989C51.637 42.7032 51.8154 42.7032 51.9938 42.7075C51.9898 43.0767 51.9898 43.4502 51.9859 43.8194C51.9779 44.0126 51.9779 44.2015 51.974 44.3903Z" fill="#E85814"/>
<path d="M52.0699 16.8374C52.7636 18.7478 52.058 21.4052 50.4763 22.8177C49.0293 24.1099 46.6825 24.2687 45.0057 23.1096C43.5469 22.105 42.4845 20.7913 42.5519 18.7521C42.7263 18.8509 42.9007 18.9539 43.0712 19.0526C43.1148 19.1084 43.1623 19.1642 43.206 19.2201C43.4834 20.3835 43.9274 21.3752 44.8669 22.1651C46.1117 23.2126 47.4556 23.4015 48.847 22.9679C50.8132 22.3583 51.943 19.9241 51.61 17.8033C51.61 17.7003 51.61 17.5973 51.61 17.4942C51.614 17.3912 51.618 17.2882 51.6219 17.1894C51.7765 17.0735 51.9232 16.9576 52.0699 16.8374Z" fill="#E85814"/>
<path d="M52.0697 16.8374C51.923 16.9534 51.7764 17.0736 51.6297 17.1895C51.5861 17.1809 51.5464 17.1723 51.5028 17.168C51.3363 16.7129 51.265 16.172 50.9875 15.8243C49.9132 14.4891 48.5574 13.8666 46.8964 14.2187C44.7716 14.6694 42.9164 16.5842 43.075 19.057C42.9005 18.9582 42.7261 18.8552 42.5556 18.7564C42.3416 16.6829 43.3643 15.3563 44.8628 14.3389C46.7418 13.0638 49.2432 13.154 50.8606 14.7038C51.4116 15.2318 51.6733 16.1162 52.0697 16.8374Z" fill="#FD7B24"/>
<path d="M43.0479 25.5738C43.3095 25.4236 43.5592 25.1917 43.8367 25.1359C46.3421 24.668 48.8435 24.6723 51.333 25.2991C51.448 25.3291 51.555 25.3892 51.8642 25.4536C51.8999 26.9176 51.9395 28.3772 51.9752 29.8411C51.7968 29.8454 51.6224 29.8497 51.444 29.854C51.4044 29.648 51.3647 29.4462 51.3251 29.2401C51.3251 28.184 51.3251 27.1236 51.3251 26.0546C50.8216 25.8915 50.4371 25.6683 50.0486 25.6597C48.3519 25.6168 46.6553 25.6382 44.9586 25.6339C44.4829 25.7413 44.0032 25.8443 43.5275 25.9516C43.369 25.8271 43.2104 25.7026 43.0479 25.5738Z" fill="#FD7B24"/>
<path d="M51.9901 42.7075C51.8117 42.7032 51.6333 42.7032 51.4549 42.6989C51.4549 42.4886 51.4549 42.2825 51.4549 42.0721C51.4588 39.9084 51.4707 37.7447 51.4509 35.581C51.447 35.2376 51.2884 34.8984 51.2012 34.5593C51.2884 34.5593 51.3756 34.555 51.4628 34.555C51.6531 34.5077 51.8434 34.4562 52.0337 34.409C52.0178 37.178 52.0059 39.9428 51.9901 42.7075Z" fill="#FD7B24"/>
<path d="M43.2295 34.5635C43.0828 34.7266 42.8608 34.864 42.8093 35.0572C42.7221 35.3835 42.7459 35.7441 42.7221 36.0918C42.6904 34.014 42.6587 31.9319 42.627 29.854C42.6706 29.8583 42.7142 29.8583 42.7578 29.8583C42.9044 29.8583 43.0551 29.8583 43.2017 29.8583L43.2414 29.8712C43.2493 31.4296 43.2572 32.9879 43.2652 34.5506L43.2295 34.5635Z" fill="#FD7B24"/>
<path d="M52.034 34.409C51.8437 34.4562 51.6534 34.5034 51.4631 34.5549C51.4592 32.988 51.4512 31.421 51.4473 29.854C51.6257 29.8497 51.8001 29.8454 51.9785 29.8411C51.9864 30.4293 51.9943 31.0131 52.0062 31.6013C52.0102 31.7988 52.0141 31.9963 52.0141 32.198C52.0181 32.9364 52.026 33.6748 52.034 34.409Z" fill="#E85814"/>
<path d="M43.2018 29.854C43.0551 29.854 42.9045 29.854 42.7578 29.854C42.7618 28.6563 42.7697 27.4585 42.7737 26.265C42.8014 26.1105 42.8292 25.9516 42.853 25.7971C42.9164 25.7284 42.9758 25.6597 43.0393 25.591L43.0472 25.5739C43.2058 25.6984 43.3683 25.8271 43.5269 25.9516C43.4754 26.0633 43.3802 26.1706 43.3723 26.2822C43.3089 27.4757 43.2573 28.6649 43.2018 29.854Z" fill="#E85814"/>
<path d="M42.7736 26.265C42.7697 27.4628 42.7617 28.6606 42.7578 29.854C42.7142 29.854 42.6706 29.854 42.627 29.8497C42.6745 28.6563 42.7221 27.4628 42.7736 26.265Z" fill="#FC9836"/>
<path d="M51.9746 44.3904C51.9786 44.2015 51.9825 44.0083 51.9865 43.8194C51.9786 44.0126 51.9786 44.2015 51.9746 44.3904Z" fill="#FD7B24"/>
<path d="M52.0109 32.1981C52.0069 32.0006 52.0029 31.8031 52.0029 31.6013C52.0069 31.8031 52.0109 32.0006 52.0109 32.1981Z" fill="#FD7B24"/>
<path d="M43.0388 25.591C42.9754 25.6597 42.916 25.7284 42.8525 25.7971C42.916 25.7284 42.9754 25.6597 43.0388 25.591Z" fill="#FD7B24"/>
<path d="M51.935 46.2622C51.9072 46.2321 51.9112 46.2021 51.9389 46.1806L51.9667 46.2235L51.935 46.2622Z" fill="#FD7B24"/>
<path d="M193.266 35.9631C193.258 35.7055 193.254 35.4522 193.246 35.1946C193.239 34.98 193.231 34.7653 193.223 34.5507C193.235 31.9491 193.25 29.3432 193.262 26.7416C193.274 26.6342 193.286 26.5312 193.298 26.4239C193.314 26.3165 193.33 26.2092 193.346 26.1019C193.409 25.9259 193.476 25.7456 193.54 25.5695C193.544 25.5223 193.568 25.488 193.615 25.4794C193.698 25.4279 193.786 25.3806 193.869 25.3291C193.94 25.3077 194.015 25.2862 194.087 25.269C194.261 25.2175 194.432 25.166 194.606 25.1145C195.379 25.0372 196.152 24.9556 196.921 24.8784C197.25 24.8827 197.575 24.8827 197.904 24.8869C198.059 24.8869 198.214 24.8912 198.368 24.8912C198.408 24.8955 198.447 24.8955 198.491 24.8998C198.975 24.9299 199.458 24.9599 199.942 24.99C200.037 25.0029 200.136 25.0157 200.231 25.0286C200.378 25.0415 200.521 25.0587 200.667 25.0715C200.719 25.0758 200.767 25.0801 200.818 25.0887C201.155 25.1746 201.492 25.2561 201.829 25.342C202.007 25.5438 202.186 25.7456 202.364 25.9516C202.376 26.059 202.388 26.1706 202.4 26.2779C202.412 26.4324 202.428 26.587 202.439 26.7416C202.467 27.7333 202.495 28.7292 202.523 29.7209C202.507 29.7338 202.475 29.7553 202.479 29.7596C202.491 29.7939 202.511 29.824 202.531 29.8583C202.535 29.9699 202.539 30.0816 202.542 30.1889C202.499 30.3306 202.42 30.4722 202.42 30.6139C202.412 33.237 202.408 35.86 202.416 38.4831C202.416 38.6377 202.531 38.7965 202.59 38.9511C202.59 39.0498 202.59 39.1528 202.586 39.2516C202.527 39.5134 202.416 39.771 202.424 40.0329C202.443 41.2865 202.499 42.5358 202.539 43.7893C202.527 44.5793 202.515 45.3735 202.503 46.1634L202.463 46.1978C202.471 46.2321 202.487 46.2622 202.499 46.2922C202.475 47.0263 202.451 47.7647 202.431 48.4989C202.42 48.6534 202.412 48.808 202.4 48.9625C202.372 49.19 202.34 49.4133 202.313 49.6408C202.106 49.7353 201.9 49.8297 201.694 49.9242C201.155 49.9671 200.616 50.01 200.081 50.0529C198.741 50.0572 197.397 50.0572 196.057 50.0615C195.621 50.0229 195.181 49.9843 194.745 49.9456C194.622 49.907 194.495 49.8683 194.372 49.8297L194.329 49.8383L194.297 49.8039C194.237 49.7481 194.178 49.688 194.123 49.6322C194.091 49.512 194.059 49.3961 194.027 49.2759C194.012 49.0698 193.996 48.8681 193.98 48.662C193.952 48.4473 193.924 48.237 193.893 48.0223C193.885 47.9236 193.873 47.8205 193.865 47.7218C193.825 47.1938 193.786 46.67 193.746 46.142C193.734 45.9874 193.726 45.8329 193.714 45.6783C193.679 45.0515 193.643 44.4204 193.603 43.7936C193.587 43.5361 193.572 43.2785 193.552 43.0166C193.536 42.5959 193.52 42.1709 193.504 41.7501L193.54 41.7115C193.528 41.6815 193.508 41.6514 193.492 41.6213C193.48 41.4067 193.468 41.192 193.453 40.9774C193.437 40.5094 193.417 40.0415 193.401 39.5736C193.369 38.6806 193.338 37.7919 193.306 36.899C193.294 36.5856 193.282 36.2722 193.266 35.9631ZM193.754 29.7209C193.794 31.597 193.833 33.4731 193.869 35.3492C194.075 39.9041 194.285 44.4591 194.487 48.911C195.807 49.585 200.489 49.6193 201.694 49.0011C201.781 48.2241 201.944 47.3827 201.956 46.5369C201.995 43.9053 201.98 41.2736 201.984 38.642C202.023 38.3672 202.106 38.0924 202.102 37.8177C202.067 35.6368 202.019 33.4559 201.972 31.2707C201.972 29.5879 201.972 27.905 201.972 26.1233C199.165 25.3334 196.561 25.3463 193.754 26.0375C193.754 27.3426 193.754 28.5318 193.754 29.7209Z" fill="#61B31B"/>
<path d="M202.883 18.4173C202.86 21.6242 200.838 23.9038 198.031 23.8866C195.379 23.8695 192.945 21.3022 192.965 18.5589C192.989 15.777 195.482 13.433 198.372 13.4759C201.072 13.5189 202.903 15.5237 202.883 18.4173ZM198.15 23.1311C200.291 23.4444 202.269 20.9373 202.249 18.4387C202.229 15.5881 200.592 14.3646 198.309 14.1156C196.013 13.8666 193.556 16.3265 193.603 18.6577C193.643 20.6325 195.657 23.38 198.15 23.1311Z" fill="#87CC2D"/>
<path d="M202.59 38.9511C202.531 38.7965 202.416 38.6377 202.416 38.4831C202.408 35.8601 202.408 33.237 202.42 30.6139C202.42 30.4722 202.499 30.3306 202.543 30.1889C202.578 30.9359 202.642 31.6829 202.638 32.4256C202.634 34.5979 202.606 36.7745 202.59 38.9511Z" fill="#87CC2D"/>
<path d="M202.538 43.785C202.498 42.5315 202.443 41.2822 202.423 40.0286C202.419 39.771 202.53 39.5091 202.585 39.2473C202.57 40.7627 202.554 42.2739 202.538 43.785Z" fill="#87CC2D"/>
<path d="M196.057 50.053C197.397 50.0487 198.74 50.0487 200.08 50.0444C198.736 50.0444 197.397 50.0487 196.057 50.053Z" fill="#87CC2D"/>
<path d="M193.405 39.5692C193.421 40.0372 193.441 40.5051 193.457 40.973C193.437 40.5051 193.421 40.0372 193.405 39.5692Z" fill="#87CC2D"/>
<path d="M193.266 35.9631C193.278 36.2722 193.293 36.5856 193.305 36.8947C193.293 36.5856 193.281 36.2722 193.266 35.9631Z" fill="#87CC2D"/>
<path d="M202.364 25.9431C202.186 25.7413 202.007 25.5395 201.829 25.3334C202.007 25.5395 202.186 25.7413 202.364 25.9431Z" fill="#87CC2D"/>
<path d="M193.552 43.0123C193.568 43.2699 193.583 43.5275 193.603 43.7894C193.583 43.5275 193.568 43.2699 193.552 43.0123Z" fill="#87CC2D"/>
<path d="M201.694 49.9155C201.9 49.8211 202.107 49.7266 202.313 49.6322C202.107 49.7266 201.9 49.8211 201.694 49.9155Z" fill="#87CC2D"/>
<path d="M193.976 48.6534C193.991 48.8594 194.007 49.0612 194.023 49.2673C194.007 49.0655 193.991 48.8594 193.976 48.6534Z" fill="#87CC2D"/>
<path d="M193.223 34.5507C193.231 34.7653 193.239 34.98 193.246 35.1946C193.242 34.98 193.231 34.7653 193.223 34.5507Z" fill="#87CC2D"/>
<path d="M197.909 24.8826C197.58 24.8783 197.255 24.8783 196.926 24.874C197.251 24.8783 197.58 24.8783 197.909 24.8826Z" fill="#87CC2D"/>
<path d="M202.439 26.7373C202.427 26.5827 202.411 26.4282 202.399 26.2736C202.411 26.4282 202.427 26.5827 202.439 26.7373Z" fill="#87CC2D"/>
<path d="M202.399 48.9582C202.411 48.8037 202.419 48.6491 202.431 48.4946C202.419 48.6491 202.411 48.8037 202.399 48.9582Z" fill="#87CC2D"/>
<path d="M193.539 25.5695C193.476 25.7455 193.408 25.9258 193.345 26.1019C193.412 25.9258 193.476 25.7455 193.539 25.5695Z" fill="#87CC2D"/>
<path d="M193.71 45.6697C193.722 45.8242 193.73 45.9788 193.742 46.1333C193.73 45.9788 193.722 45.8242 193.71 45.6697Z" fill="#87CC2D"/>
<path d="M194.606 25.1102C194.432 25.1617 194.261 25.2132 194.087 25.2647C194.261 25.2132 194.436 25.1617 194.606 25.1102Z" fill="#87CC2D"/>
<path d="M200.231 25.0243C200.136 25.0114 200.037 24.9985 199.941 24.9857C200.037 24.9942 200.132 25.0114 200.231 25.0243Z" fill="#87CC2D"/>
<path d="M193.86 47.7175C193.868 47.8163 193.88 47.9193 193.888 48.018C193.88 47.915 193.868 47.8163 193.86 47.7175Z" fill="#87CC2D"/>
<path d="M194.369 49.8211C194.492 49.8597 194.619 49.8984 194.742 49.937C194.619 49.8984 194.496 49.8597 194.369 49.8211Z" fill="#87CC2D"/>
<path d="M193.297 26.4238C193.286 26.5312 193.274 26.6342 193.262 26.7415C193.274 26.6342 193.286 26.5312 193.297 26.4238Z" fill="#87CC2D"/>
<path d="M193.869 25.3291C193.782 25.3806 193.698 25.4278 193.615 25.4794C193.698 25.4278 193.786 25.3806 193.869 25.3291Z" fill="#87CC2D"/>
<path d="M198.491 24.8955C198.451 24.8912 198.412 24.8912 198.368 24.887C198.412 24.8526 198.451 24.8526 198.491 24.8955Z" fill="#87CC2D"/>
<path d="M202.53 29.8541C202.511 29.824 202.491 29.7897 202.479 29.7553C202.475 29.751 202.507 29.7296 202.522 29.7167C202.558 29.7596 202.558 29.8068 202.53 29.8541Z" fill="#87CC2D"/>
<path d="M202.499 46.2879C202.487 46.2579 202.471 46.2278 202.463 46.1935L202.503 46.1591C202.534 46.202 202.534 46.245 202.499 46.2879Z" fill="#87CC2D"/>
<path d="M200.818 25.0844C200.766 25.0801 200.719 25.0758 200.667 25.0673C200.719 25.0716 200.766 25.0758 200.818 25.0844Z" fill="#87CC2D"/>
<path d="M194.115 49.6237C194.175 49.6795 194.234 49.7396 194.29 49.7954C194.234 49.7396 194.175 49.6838 194.115 49.6237Z" fill="#87CC2D"/>
<path d="M193.493 41.6171C193.509 41.6471 193.529 41.6772 193.54 41.7072L193.505 41.7459C193.469 41.7072 193.465 41.6643 193.493 41.6171Z" fill="#87CC2D"/>
<path d="M84.9799 50.2462C85.0434 50.3535 85.1068 50.4651 85.2138 50.6411C85.3526 50.4393 85.416 50.3449 85.4794 50.2547C85.8322 49.9413 86.1811 49.6194 86.5379 49.3146C86.9581 48.9625 87.1602 48.2885 87.8223 48.2885C87.0691 49.4133 86.3119 50.5424 85.4794 51.7831C83.5964 50.7055 81.769 49.658 79.9375 48.6105C79.9692 48.3873 80.0009 48.164 80.0644 47.7047C81.7729 48.5933 83.3744 49.4219 84.9799 50.2462Z" fill="#AEAEAE"/>
<path d="M81.7337 43.3557C80.9091 43.0123 80.0846 42.6688 79.2283 42.3125C79.1807 42.4756 79.1451 42.6173 79.1054 42.759C78.9905 42.935 78.7843 43.111 78.7764 43.2913C78.7447 44.3431 78.7605 45.3992 78.7605 46.451C77.1035 47.1165 75.4623 47.8463 73.7775 48.4216C72.7825 48.7607 71.7043 48.7993 70.6855 49.0655C68.2673 49.6966 65.8016 49.8597 63.3438 49.8726C61.881 49.8769 60.4143 49.5077 58.8524 49.2888C58.5273 45.2876 58.3727 41.4153 58.4123 37.5343C60.66 35.9115 63.0029 34.5077 65.647 33.795C65.6153 36.2979 65.5836 38.8008 66.305 41.3079C67.0067 41.4153 67.641 41.5784 68.2752 41.5956C69.7935 41.6342 71.2365 41.2521 72.6715 40.6854C74.9787 39.7753 76.5921 38.1869 77.3612 35.6368C78.0985 35.9201 78.8319 36.212 79.5732 36.4782C81.2897 37.1007 83.0062 37.7146 84.7227 38.3285C84.5165 40.1488 83.8188 41.7286 82.6891 43.081C82.5146 43.2913 82.2054 43.3686 81.9596 43.506L81.9636 43.4974C81.8883 43.4502 81.809 43.4029 81.7337 43.3557Z" fill="#F27701"/>
<path d="M231.734 23.5947C231.742 23.642 231.746 23.6935 231.742 23.745C229.859 25.0673 227.976 26.3938 226.093 27.7161C226.002 27.6045 225.907 27.4886 225.816 27.3769C225.728 26.9734 225.629 26.5741 225.558 26.1706C225.364 25.0587 225.058 24.9041 224.17 25.5094C224.004 26.0074 223.841 26.5226 223.659 27.0292C223.433 27.6689 223.187 28.2999 222.953 28.9353C222.902 28.9911 222.854 29.0426 222.803 29.0985C221.55 29.2745 220.301 29.4934 219.041 29.6179C217.772 29.7424 216.524 29.5836 215.247 29.0212C215.901 27.6946 216.528 26.4282 217.146 25.166C217.598 24.2516 218.022 23.32 218.494 22.4184C219.433 20.6282 220.393 18.8466 221.36 17.0736C221.717 16.4124 222.347 16.3137 222.977 16.245C223.405 16.1978 223.838 16.1634 224.258 16.0819C225.685 15.8028 227.06 16.245 228.44 16.4725C229.261 16.6099 229.443 17.593 229.724 18.3014C230.355 19.8898 230.894 21.5212 231.477 23.1311C231.544 23.2942 231.647 23.4402 231.734 23.5947Z" fill="#BD77EF"/>
<path d="M227.366 33.3142C227.481 33.1554 227.564 32.9407 227.715 32.8463C229.606 31.6786 231.509 30.5323 233.527 29.3045C233.959 30.6139 234.415 32.0048 234.934 33.5804C233.963 34.1085 233.019 34.7309 232.008 35.156C229.856 36.0575 227.652 36.8646 225.337 37.0106C223.422 37.1308 221.491 36.9934 219.573 36.929C216.96 36.8474 214.348 36.4825 211.743 37.0277C211.704 37.0363 211.656 36.9934 211.529 36.9419C211.953 35.9931 212.374 35.0529 212.818 34.0569C213.579 34.263 214.316 34.482 215.057 34.6666C217.337 35.2332 219.64 35.1002 221.935 34.8297C222.193 34.7996 222.431 34.585 222.677 34.4605C223.969 34.439 225.265 34.439 226.558 34.3875C226.799 34.3789 227.033 34.19 227.275 34.087C227.311 34.0312 227.346 33.9754 227.382 33.9196C227.37 33.7135 227.37 33.516 227.366 33.3142Z" fill="#BD77EF"/>
<path d="M227.366 33.3143C227.37 33.516 227.37 33.7178 227.374 33.9153C227.338 33.9711 227.303 34.0269 227.267 34.0827C227.029 34.1857 226.791 34.3746 226.55 34.3832C225.257 34.4305 223.961 34.4347 222.669 34.4562C222.264 34.4262 221.86 34.4004 221.432 34.3661C221.313 34.1342 221.202 33.911 221.083 33.6792C221.658 32.1465 222.229 30.6225 222.8 29.0985C222.851 29.0426 222.899 28.9911 222.95 28.9353C223.192 28.828 223.434 28.7164 223.676 28.609C223.069 30.2748 222.466 31.9362 221.86 33.6019C221.888 33.6534 221.915 33.7006 221.943 33.7521C222.371 33.7607 222.796 33.7693 223.224 33.7779C223.85 33.7865 224.476 33.7908 225.103 33.7994C225.535 33.808 225.967 33.8123 226.399 33.8208C226.451 33.8208 226.506 33.8251 226.558 33.8251C226.609 33.8165 226.657 33.808 226.708 33.8037C226.748 33.7393 226.784 33.6749 226.823 33.6105C226.343 31.6872 225.864 29.7639 225.384 27.8363C225.527 27.686 225.67 27.5358 225.812 27.3812C225.903 27.4928 225.999 27.6088 226.09 27.7204C226.447 29.2401 226.807 30.7556 227.16 32.2753C227.239 32.6145 227.299 32.9665 227.366 33.3143Z" fill="#7231C6"/>
<path d="M28.8037 29.9914C30.0881 31.5326 31.3844 33.0609 32.6529 34.6193C33.5528 35.7269 34.4209 36.8646 35.2891 38.0023C36.5021 39.595 37.6953 41.2092 38.9203 42.789C39.2414 43.2055 39.281 43.6176 38.9996 43.9911C37.3663 46.172 35.6141 48.2112 33.089 49.5249C32.6648 49.1085 32.1653 48.735 31.8085 48.2413C30.2347 46.0861 28.6927 43.9052 27.1625 41.7158C26.1516 40.2733 25.1725 38.8008 24.1933 37.3326C23.9158 36.9161 23.6859 36.4611 23.4282 36.006C23.1626 35.9888 22.9287 35.9716 22.6275 35.9545C21.795 36.9118 20.9546 37.8821 20.134 38.8308C20.2093 41.9176 20.2807 44.9485 20.3481 47.8291C19.6622 48.7865 18.7743 48.7135 18.0449 48.7392C16.5424 48.7865 15.0321 48.6319 13.5336 48.4774C13.2918 48.4516 12.9826 48.0395 12.8914 47.7433C12.7527 47.2882 12.7447 46.773 12.7328 46.2836C12.6694 43.1583 12.6218 40.0372 12.5703 36.9118C14.2392 36.7444 15.9121 36.6285 17.5731 36.3967C18.3858 36.285 19.2539 36.1133 19.9635 35.7012C22.3064 34.3403 24.5977 32.8678 26.889 31.4124C27.551 30.9917 28.1654 30.4679 28.8037 29.9914Z" fill="#DD262D"/>
<path d="M12.4239 30.1803C12.42 28.8323 12.3962 27.4885 12.416 26.1405C12.4477 24.1356 12.4913 22.1308 12.5706 20.1302C12.638 18.443 12.7648 16.7601 12.8679 15.0772C12.8719 15.03 12.8996 14.9828 12.971 14.7767C13.3278 14.6608 13.7717 14.4118 14.2237 14.3946C15.849 14.3388 17.4822 14.2873 19.1036 14.3861C20.1184 14.4462 20.4593 15.0601 20.4197 15.88C20.2968 18.5203 20.2254 21.1648 20.1382 23.8094C20.1184 24.3675 20.1343 24.9298 20.1343 25.4879C20.7606 25.6897 21.1451 25.4837 21.498 25.0586C23.2065 23.0023 24.8913 20.9201 26.6554 18.9281C28.0508 17.3483 29.5571 15.88 30.9565 14.4204C31.7969 14.1499 32.2092 14.7896 32.6532 15.2017C33.9574 16.4081 35.222 17.666 36.4747 18.9367C36.7839 19.2458 36.99 19.6751 37.3587 20.2203C36.3359 21.3451 35.3052 22.4828 34.2706 23.6205C32.3004 23.0066 30.2985 23.0151 28.2846 23.2942C26.1638 23.5904 24.1738 24.3675 22.4137 25.6339C21.046 26.617 19.8607 27.9007 18.6041 29.0641C18.2196 29.4161 17.9024 29.8712 17.4902 30.1717C15.8212 31.3823 14.1166 31.2149 12.4239 30.1803Z" fill="#FA3D45"/>
<path d="M12.4238 30.1803C14.1205 31.2149 15.8211 31.3781 17.498 30.1588C17.9103 29.8583 18.2274 29.4076 18.6119 29.0512C19.8686 27.8878 21.0539 26.6042 22.4215 25.6211C24.1816 24.3589 26.1716 23.5776 28.2925 23.2813C30.3063 23.0023 32.3082 22.9937 34.2784 23.6076C32.9306 24.9599 31.5867 26.3122 30.2389 27.6689C28.9862 27.6216 27.7851 27.7805 26.572 28.2398C24.5661 28.9997 22.7783 30.073 21.3195 31.7516C20.2333 33.0009 18.9489 33.9625 17.4504 34.4648C15.7815 35.0229 14.0848 34.7782 12.4278 34.233C12.4238 32.8849 12.4238 31.5326 12.4238 30.1803Z" fill="#DD262D"/>
<path d="M12.4238 34.2373C14.0809 34.7868 15.7775 35.0272 17.4465 34.4691C18.9449 33.9711 20.2293 33.0094 21.3155 31.7559C22.7743 30.073 24.5622 28.9997 26.568 28.2441C27.7811 27.7848 28.9822 27.6259 30.2349 27.6731C29.9891 27.9694 29.7037 28.2398 29.5015 28.5747C29.232 29.0212 29.0298 29.5192 28.7999 29.9914C28.1617 30.4679 27.5472 30.9917 26.8812 31.4167C24.586 32.8763 22.2986 34.3446 19.9558 35.7055C19.2462 36.1176 18.382 36.285 17.5654 36.401C15.9044 36.6328 14.2315 36.753 12.5626 36.9161C12.515 36.0232 12.4674 35.1302 12.4238 34.2373Z" fill="#FA3D45"/>
<path d="M58.6943 26.4196C58.8291 24.0412 58.9679 21.6585 59.1026 19.2802C59.1066 19.2287 59.1066 19.1771 59.1145 19.1256C59.2057 18.4731 59.0868 17.5071 59.4356 17.2281C60.1095 16.6915 61.0253 16.421 61.8776 16.2578C65.4255 15.5838 68.8585 16.5498 72.2915 17.3097C75.6214 18.0481 78.3726 19.9757 80.7392 22.53C81.6629 23.526 82.3645 24.7624 83.1494 25.9044C83.2406 26.0375 83.2406 26.2435 83.2802 26.411C83.0741 26.4711 82.868 26.5441 82.6618 26.587C81.4726 26.8489 80.2873 27.2739 79.0901 27.3125C77.7423 27.3597 76.3865 27.0549 75.0308 26.9004C74.6502 26.6771 74.2696 26.4582 73.8891 26.235C73.7543 26.0675 73.6512 25.8142 73.4847 25.7498C72.3668 25.3205 71.2489 24.8569 70.0993 24.5607C69.3184 24.3632 68.478 24.4233 67.6653 24.3675C67.1856 24.4748 66.706 24.5864 66.2303 24.6937C66.04 24.6894 65.8418 24.7109 65.6555 24.6723C64.2601 24.376 62.8766 24.4748 61.5525 24.9985C60.5654 25.3978 59.6418 25.943 58.6943 26.4196Z" fill="#FC9836"/>
<path d="M75.0303 26.9047C76.3821 27.055 77.7418 27.3598 79.0896 27.3168C80.2868 27.2782 81.4721 26.8489 82.6613 26.5913C82.8714 26.5441 83.0736 26.4754 83.2798 26.4153C83.696 27.2224 84.1836 27.9994 84.5047 28.8495C84.8139 29.6694 84.9447 30.5667 85.1548 31.4296C84.1717 31.7258 83.1806 31.9963 82.2055 32.3183C80.6594 32.8291 79.0936 33.0009 77.492 32.6961C77.2463 31.4468 77.0005 30.1975 76.8062 29.1929C76.1125 28.2999 75.5734 27.6045 75.0303 26.9047Z" fill="#F27701"/>
<path d="M65.6438 33.7908C62.9957 34.5034 60.6569 35.9073 58.4092 37.53C58.4567 35.6969 58.5004 33.8638 58.5559 32.0306C58.5638 31.7773 58.647 31.5283 58.6946 31.275C60.8313 29.8369 63.2138 29.5621 65.6517 29.5449C65.6914 29.7982 65.7707 30.0515 65.7667 30.3048C65.735 31.4682 65.6835 32.6273 65.6438 33.7908Z" fill="#FC9836"/>
<path d="M77.4961 32.696C79.0976 33.0008 80.6595 32.8291 82.2095 32.3182C83.1847 31.9963 84.1757 31.7215 85.1588 31.4296C85.2381 32.125 85.361 32.8162 85.3848 33.5117C85.4086 34.1771 85.361 34.8511 85.2976 35.5209C85.2262 36.3194 85.1192 37.1179 85.0003 37.9078C84.9765 38.0624 84.8219 38.1912 84.7267 38.3285C83.0102 37.7103 81.2898 37.1007 79.5773 36.4782C78.8359 36.2078 78.1026 35.9158 77.3652 35.6368C77.4049 34.6537 77.4485 33.6748 77.4961 32.696Z" fill="#FC9836"/>
<path d="M65.651 29.5449C63.213 29.5621 60.8305 29.8368 58.6938 31.275C58.6462 31.0046 58.5551 30.7298 58.563 30.4593C58.5947 29.1113 58.6502 27.7633 58.6978 26.4196C59.6452 25.943 60.5689 25.3978 61.548 25.0114C62.8721 24.4877 64.2516 24.3889 65.651 24.6852C65.8373 24.7238 66.0355 24.7023 66.2258 24.7066C66.0791 26.1019 65.9324 27.4928 65.7778 28.8881C65.7501 29.107 65.6906 29.3217 65.651 29.5449Z" fill="#F27701"/>
<path d="M81.7344 43.3557C81.8097 43.4029 81.889 43.4502 81.9643 43.4974C81.889 43.4502 81.8097 43.4029 81.7344 43.3557Z" fill="#E85814"/>
<path d="M126.065 33.6234C126.065 33.5676 126.069 33.516 126.069 33.4602C126.248 32.9923 126.426 32.52 126.612 32.0392C127.366 31.348 128.147 30.6311 128.991 29.8583C129.697 29.8583 130.485 29.8583 131.274 29.8583C131.346 30.6311 131.278 31.4511 131.508 32.1637C132.353 34.8125 133.629 37.0836 136.031 38.5132C137.348 39.2988 138.707 39.6208 140.126 39.6981C142.192 39.814 144.162 39.3847 145.918 38.071C147.321 37.0235 148.519 35.8128 149.2 34.087C149.248 34.087 149.3 34.087 149.347 34.087C149.847 34.1428 150.346 34.2459 150.846 34.2373C152.273 34.2115 153.696 34.1385 155.123 34.0827C155.222 34.087 155.317 34.087 155.416 34.0913C154.838 35.4222 154.326 36.7959 153.652 38.0667C153.161 38.9983 152.518 39.8655 151.837 40.6468C151.183 41.3981 150.445 42.0936 149.644 42.6474C148.463 43.4674 147.23 44.2187 145.954 44.8369C145.165 45.219 144.249 45.2919 143.397 45.5152C141.042 46.1291 138.664 45.85 136.448 45.1116C134.525 44.472 132.698 43.3858 131.104 41.8747C129.237 40.1059 127.806 38.0452 126.735 35.6626C126.446 35.0229 126.287 34.306 126.065 33.6234Z" fill="#FDCF20"/>
<path d="M155.123 34.0827C153.695 34.1385 152.272 34.2115 150.845 34.2372C150.346 34.2458 149.846 34.1385 149.347 34.087C149.882 32.739 150.128 31.3179 150.215 29.8626C151.781 29.4247 153.358 29.0083 154.77 27.686C154.908 27.656 155.237 27.5873 155.566 27.5143C155.662 27.7075 155.828 27.8921 155.84 28.0939C155.951 29.7896 155.995 31.4897 155.59 33.1597C155.555 33.3056 155.57 33.4688 155.563 33.6233C155.559 33.6748 155.559 33.7221 155.559 33.7736C155.412 33.8766 155.269 33.9797 155.123 34.0827Z" fill="#FDE301"/>
<path d="M155.123 34.0827C155.27 33.9797 155.412 33.8767 155.559 33.7736C155.512 33.881 155.464 33.984 155.42 34.0913C155.321 34.087 155.222 34.087 155.123 34.0827Z" fill="#F9C60B"/>
<path d="M126.938 23.4487C128.444 20.1001 130.85 17.666 133.807 15.9316C136.035 14.6265 138.497 14.0469 141.062 14.0426C142.83 14.0426 144.578 14.4075 146.164 15.0944C147.75 15.7813 149.165 16.9576 150.592 18.0137C151.325 18.5589 151.975 19.2673 152.566 19.9971C153.062 20.6067 153.414 21.3494 153.827 22.032C153.827 22.3411 153.823 22.6545 153.823 22.9636C153.395 22.9636 152.97 22.9636 152.566 22.9636C152.423 23.2641 152.328 23.4659 152.249 23.6333C151.94 23.7492 151.63 23.7836 151.416 23.9596C150.667 24.5778 149.855 24.9255 148.903 24.8526C148.225 24.0927 147.567 23.3113 146.866 22.5772C145.339 20.9716 143.314 20.611 141.367 20.1946C139.567 19.8082 137.851 20.5724 136.214 21.3022C135.437 21.6456 134.529 21.9719 134.148 22.9679C134.053 22.9679 133.962 22.9722 133.867 22.9722C133.673 22.9722 133.482 22.9765 133.288 22.9765C131.802 22.9765 130.315 22.9765 128.813 22.9765C128.309 23.6977 127.584 23.3672 126.938 23.4487Z" fill="#FDE301"/>
<path d="M148.911 24.8526C149.863 24.9256 150.675 24.5778 151.424 23.9596C151.638 23.7836 151.948 23.7493 152.257 23.6334C152.336 23.4702 152.431 23.2641 152.574 22.9636C152.978 22.9636 153.403 22.9636 153.831 22.9636C153.93 22.9121 154.025 22.8606 154.124 22.8091C154.219 22.8134 154.314 22.8177 154.409 22.822C154.842 24.1743 155.278 25.5309 155.71 26.8832C155.662 27.0936 155.619 27.3039 155.571 27.51C155.242 27.5787 154.917 27.6517 154.778 27.6817C153.363 29.004 151.789 29.4204 150.223 29.8583L150.219 29.854C150.223 28.1024 149.807 26.4839 148.923 25.0114C148.911 24.9599 148.911 24.9041 148.911 24.8526Z" fill="#FDCF20"/>
<path d="M126.938 23.4487C127.584 23.3672 128.309 23.702 128.821 22.9765C130.323 22.9765 131.81 22.9765 133.296 22.9765C133.348 23.1311 133.396 23.2899 133.447 23.4444C132.821 24.698 132.19 25.9473 131.564 27.2009C131.275 27.2009 130.989 27.1966 130.7 27.2052C130.058 27.2266 129.404 27.1837 128.773 27.2953C127.766 27.4714 126.775 27.7504 125.776 27.9865C126.01 26.9047 126.248 25.8271 126.478 24.7452C126.537 24.4705 126.589 24.1957 126.645 23.9167C126.744 23.7578 126.843 23.6033 126.938 23.4487Z" fill="#FDCF20"/>
<path d="M154.116 22.8134C154.016 22.8649 153.921 22.9164 153.822 22.9679C153.822 22.6588 153.826 22.3454 153.826 22.0363C153.925 22.2939 154.02 22.5515 154.116 22.8134Z" fill="#FBD704"/>
<path d="M125.78 27.9823C126.779 27.7461 127.77 27.4671 128.777 27.2911C129.407 27.1795 130.061 27.2224 130.704 27.2009C130.989 27.1923 131.278 27.1966 131.568 27.1966C131.473 28.0853 131.374 28.9697 131.278 29.8583C130.49 29.8583 129.697 29.8583 128.995 29.8583C128.155 30.6311 127.37 31.348 126.617 32.0392C126.434 32.5243 126.252 32.9923 126.073 33.4602C125.923 32.022 125.768 30.5839 125.629 29.1457C125.602 28.8666 125.633 28.579 125.637 28.2914C125.681 28.1926 125.729 28.0853 125.78 27.9823Z" fill="#FDE301"/>
<path d="M90.498 34.555C92.048 33.8895 93.6615 33.5718 95.3225 33.6405C96.1272 33.6706 96.928 33.8423 97.7327 33.9539C97.7803 35.1689 97.7803 36.3924 97.8992 37.5987C97.9666 38.2899 97.8754 39.14 98.5533 39.5607C98.9695 39.8226 99.4849 39.9728 99.9685 40.0243C102.208 40.269 104.254 39.2816 106.371 38.7622C106.394 38.7579 106.398 38.6677 106.41 38.6162C106.529 38.6377 106.656 38.6334 106.763 38.6806C108.872 39.5435 111.04 39.638 113.205 39.0842C114.339 38.7965 115.417 38.2642 116.519 37.8435C116.519 38.0753 116.519 38.3071 116.519 38.6119C116.349 38.7708 116.17 38.9382 115.988 39.1056C115.825 40.0758 115.433 40.8787 114.703 41.5312C114.01 42.1494 113.474 42.9908 112.749 43.5489C111.183 44.751 109.526 45.7813 107.588 46.172C106.898 46.3137 106.268 46.773 105.578 46.9233C103.687 47.3397 101.784 47.7261 99.8734 48.0095C98.47 48.2155 97.039 48.3572 95.6277 48.31C94.042 48.2584 92.4643 47.9622 90.8826 47.7733C90.7914 46.743 90.6685 45.9273 90.6526 45.103C90.5853 41.587 90.5496 38.071 90.498 34.555Z" fill="#E25A01"/>
<path d="M97.875 25.0114C95.992 24.1356 94.0377 24.0326 92.0437 24.3846C91.5799 24.4662 91.1201 24.5778 90.6562 24.6766C90.8227 21.8303 90.9892 18.9839 91.1597 16.0818C93.1497 14.3131 95.441 14.3818 97.7442 14.6565C99.5004 14.8669 101.256 15.1416 102.997 15.4636C105.566 15.9359 107.936 16.9104 110.105 18.5503C112.245 20.1688 113.97 22.1694 115.361 24.5134C115.837 25.3119 116.043 26.2993 116.376 27.2052C116.277 27.3039 116.178 27.4027 116.083 27.5057C113.886 28.3772 111.67 29.1328 109.296 29.0984C109.102 28.5747 108.963 28.0123 108.701 27.5314C107.754 25.7799 106.386 24.4834 104.63 23.8051C103.401 23.3285 102.093 23.0709 100.805 22.8134C99.0405 22.4613 98.3706 22.955 97.9147 24.7882C97.8988 24.8569 97.8869 24.9341 97.875 25.0114Z" fill="#FD7B24"/>
<path d="M116.523 37.8391C115.421 38.2599 114.342 38.7922 113.209 39.0798C111.044 39.6336 108.876 39.5349 106.767 38.6763C106.656 38.6333 106.529 38.6334 106.414 38.6119C106.442 38.5131 106.438 38.3758 106.501 38.3242C107.643 37.3368 108.725 36.2979 109.237 34.7395C109.264 34.658 109.375 34.6064 109.451 34.5378C110.283 34.4605 111.135 34.4862 111.94 34.2845C113.819 33.8122 115.674 33.2284 117.542 32.6874C117.383 33.9625 117.256 35.2461 117.05 36.5126C116.967 36.9762 116.701 37.4012 116.523 37.8391Z" fill="#FD7B24"/>
<path d="M117.534 32.6917C115.671 33.2326 113.812 33.8122 111.933 34.2887C111.128 34.4905 110.276 34.4648 109.444 34.5463C109.519 32.7261 109.638 30.9058 109.297 29.0984C111.671 29.1328 113.887 28.3772 116.084 27.5057C116.183 27.4585 116.278 27.4112 116.377 27.364C116.615 27.9135 116.964 28.4373 117.071 29.0126C117.293 30.2232 117.388 31.4639 117.534 32.6917Z" fill="#E25A01"/>
<path d="M116.381 27.3554C116.282 27.4027 116.187 27.4499 116.088 27.4971C116.187 27.3984 116.286 27.2996 116.381 27.1966C116.381 27.2524 116.381 27.3039 116.381 27.3554Z" fill="#F27701"/>
<path d="M109.296 29.0941C109.637 30.9015 109.518 32.7218 109.443 34.5421C109.372 34.6065 109.257 34.658 109.229 34.7395C108.721 36.2979 107.635 37.3326 106.494 38.3243C106.434 38.3758 106.434 38.5132 106.406 38.6119C106.394 38.6634 106.391 38.7493 106.367 38.7579C104.25 39.2773 102.204 40.269 99.9645 40.02C99.4809 39.9685 98.9656 39.8183 98.5493 39.5564C97.8715 39.1357 97.9626 38.2813 97.8952 37.5944C97.7724 36.3881 97.7763 35.1646 97.7287 33.9496C97.7248 32.9107 97.7208 31.8718 97.7129 30.8371C97.7644 28.8967 97.8199 26.9519 97.8715 25.0114C97.8873 24.9342 97.8952 24.8569 97.9151 24.7839C98.3709 22.955 99.0409 22.4571 100.805 22.8091C102.093 23.0667 103.402 23.3285 104.63 23.8008C106.383 24.4791 107.75 25.7713 108.702 27.5272C108.967 28.008 109.106 28.5704 109.296 29.0941ZM98.7832 39.1399C100.706 39.4662 102.406 39.2902 104.075 38.6806C105.32 38.2255 106.49 37.6159 107.386 36.5469C109.439 34.0956 109.233 31.2493 108.297 28.4631C107.267 25.3892 102.517 22.8391 99.5126 23.5003C98.8863 23.6376 98.6088 24.0154 98.6048 24.6895C98.5692 28.6734 98.5137 32.6574 98.5097 36.6414C98.5097 37.4528 98.6841 38.2727 98.7832 39.1399Z" fill="#E85814"/>
<path d="M187.232 30.8114C186.792 31.7258 186.463 32.7261 185.896 33.5332C184.323 35.787 182.234 37.2982 179.732 38.1225C177.905 38.7235 176.038 38.8952 174.139 38.775C173.861 38.7578 173.588 38.6076 173.251 38.5003C173.088 38.5561 172.858 38.6333 172.482 38.7621C172.438 39.3503 172.351 39.9814 172.347 40.6124C172.327 42.5572 172.339 44.502 172.339 46.4467C172.339 48.0395 172.43 47.9321 171.078 48.121C169.394 48.3572 167.693 48.34 166.008 48.0309C165.774 47.988 165.552 47.8892 165.223 47.7862C164.633 43.1411 164.53 38.4487 164.248 33.7736C164.7 33.7221 165.164 33.5675 165.596 33.6448C166.71 33.838 167.808 34.1428 168.918 34.3832C169.401 34.4905 169.937 34.439 170.381 34.6408C172.684 35.6926 174.801 35.2418 176.826 33.8337C177.37 33.4559 177.893 33.0266 178.468 32.7132C179.419 32.1937 180.378 31.6528 181.389 31.2922C183.284 30.6139 185.27 30.8028 187.232 30.8114Z" fill="#01BDE0"/>
<path d="M164.09 25.3248C164.047 24.4791 163.94 23.6333 163.967 22.7919C164.007 21.5512 164.118 20.3105 164.237 19.0741C164.308 18.3529 164.455 17.6359 164.578 16.8374C165.934 16.3394 167.143 15.7899 168.399 15.4593C169.787 15.0944 171.218 14.9313 172.629 14.6694C175.674 14.1113 178.544 14.9442 181.299 16.1634C182.468 16.6829 183.424 17.7647 184.474 18.589C184.193 18.765 183.891 18.9153 183.63 19.1213C182.215 20.2461 180.807 21.3881 179.4 22.5214C178.972 22.3154 178.56 22.0363 178.116 21.9204C177.164 21.68 176.197 21.5083 175.23 21.3408C174.088 21.1434 172.99 21.2893 171.793 22.0492C171.69 23.2255 171.579 24.5091 171.468 25.7885C170.037 25.8185 168.602 25.9301 167.178 25.8572C166.144 25.8056 165.117 25.5094 164.09 25.3248Z" fill="#01D2EE"/>
<path d="M187.233 30.8113C185.27 30.8028 183.28 30.6139 181.382 31.2922C180.375 31.6528 179.415 32.1937 178.46 32.7132C177.885 33.0266 177.362 33.4559 176.819 33.8337C174.793 35.2418 172.676 35.6926 170.373 34.6408C169.933 34.439 169.398 34.4862 168.91 34.3832C167.8 34.1428 166.706 33.838 165.588 33.6448C165.156 33.5675 164.688 33.722 164.24 33.7736C164.236 32.7303 164.232 31.6871 164.229 30.6482C165.727 31.2707 167.297 31.4295 168.882 31.4253C169.985 31.421 171.087 31.3265 172.189 31.2707C172.371 31.4253 172.53 31.6485 172.736 31.7258C175.689 32.8033 179.728 31.3222 180.716 27.8362C180.807 27.8105 180.914 27.8105 180.989 27.7547C182.499 26.6514 184.01 25.5523 185.508 24.4361C186.143 23.9639 186.753 23.4573 187.375 22.9679C188.033 24.5606 188.267 26.222 187.982 27.9479C187.855 28.7292 187.708 29.5105 187.538 30.2876C187.506 30.4722 187.34 30.6353 187.233 30.8113Z" fill="#01D2EE"/>
<path d="M172.197 31.2664C171.094 31.3223 169.992 31.4167 168.89 31.421C167.305 31.4296 165.735 31.2707 164.236 30.6439C164.189 28.8709 164.141 27.0979 164.094 25.3248C165.12 25.5137 166.147 25.8099 167.178 25.8615C168.605 25.9344 170.036 25.8228 171.467 25.7928C171.439 26.2779 171.412 26.763 171.372 27.4284C171.622 28.5876 171.907 29.927 172.197 31.2664Z" fill="#01BDE0"/>
<path d="M187.384 22.9594C186.762 23.4488 186.151 23.9596 185.517 24.4276C184.019 25.5438 182.508 26.6428 180.998 27.7461C180.923 27.8019 180.816 27.8019 180.724 27.8277C181.196 26.1663 180.562 24.6508 180.118 23.0839C180.054 23.1096 179.916 23.1611 179.745 23.2255C179.618 22.9679 179.511 22.7447 179.404 22.5172C180.812 21.3838 182.219 20.2418 183.634 19.1171C183.896 18.911 184.197 18.7607 184.478 18.5847C184.605 18.6448 184.768 18.6749 184.855 18.7736C185.91 20.0186 186.912 21.3022 187.384 22.9594Z" fill="#01BDE0"/>
<path d="M51.4552 42.0721C51.4552 42.2825 51.4552 42.4885 51.4552 42.6989C51.4473 43.1668 51.4512 43.6348 51.4354 44.1027C51.3759 45.7341 51.3085 47.3612 51.2372 49.1256C48.8269 49.6451 46.5 49.5378 43.9906 49.2115C43.7329 44.2315 43.4792 39.3932 43.2295 34.5592L43.2652 34.5421C43.4 34.585 43.5744 34.5807 43.6695 34.6708C45.1165 36.0575 46.5634 37.4399 47.9826 38.8609C48.8032 39.6809 49.5524 40.5867 50.373 41.4024C50.6703 41.7029 51.0905 41.8532 51.4552 42.0721Z" fill="#FC9836"/>
<path d="M43.071 19.057C42.9124 16.5842 44.7677 14.6695 46.8925 14.2187C48.5535 13.8666 49.9092 14.4891 50.9835 15.8243C51.261 16.172 51.3324 16.713 51.4989 17.168C51.4513 17.2539 51.4196 17.3956 51.3522 17.4256C50.2581 17.8764 49.1719 18.3529 48.0619 18.7393C46.4842 19.2888 44.839 19.233 43.2097 19.2287C43.1622 19.1686 43.1186 19.1128 43.071 19.057Z" fill="#FDCF20"/>
<path d="M43.21 19.2244C44.8432 19.2287 46.4844 19.2845 48.0621 18.735C49.1761 18.3486 50.2623 17.8721 51.3524 17.4213C51.4198 17.3912 51.4515 17.2539 51.4991 17.1637C51.5427 17.168 51.5823 17.1766 51.626 17.1852C51.622 17.2882 51.618 17.3912 51.6141 17.49C51.6141 17.593 51.6141 17.696 51.6141 17.7991C51.9471 19.9241 50.8173 22.3583 48.851 22.9636C47.4556 23.3929 46.1157 23.2041 44.871 22.1608C43.9314 21.3795 43.4875 20.3878 43.21 19.2244Z" fill="#FC9836"/>
<path d="M43.2012 29.854C43.2567 28.6648 43.3082 27.4713 43.3756 26.2822C43.3835 26.1705 43.4747 26.0632 43.5302 25.9516C44.0059 25.8443 44.4856 25.7412 44.9613 25.6339C45.1397 25.7369 45.318 25.9215 45.4964 25.9258C46.3329 25.9387 47.0742 26.1963 47.7521 26.7372C48.5727 27.3898 49.421 28.008 50.2693 28.6176C50.6023 28.858 50.975 29.034 51.3278 29.2401C51.3674 29.4462 51.4071 29.6479 51.4467 29.854C51.4507 31.421 51.4586 32.9879 51.4626 34.5549C51.3753 34.5549 51.2881 34.5592 51.2009 34.5592C51.082 34.5463 50.9393 34.5764 50.8481 34.512C49.5994 33.619 48.3467 32.7304 47.1218 31.7988C45.9325 30.8929 44.9256 29.5878 43.2408 29.8669L43.2012 29.854Z" fill="#FC9836"/>
<path d="M51.3235 29.2444C50.9707 29.0383 50.5981 28.8623 50.2651 28.6219C49.4167 28.0123 48.5684 27.3941 47.7478 26.7415C47.0699 26.2006 46.3286 25.943 45.4922 25.9301C45.3138 25.9258 45.1354 25.7412 44.957 25.6382C46.6537 25.6425 48.3504 25.621 50.047 25.664C50.4355 25.6725 50.8201 25.8958 51.3235 26.0589C51.3235 27.1279 51.3235 28.184 51.3235 29.2444Z" fill="#FDCF20"/>
<path d="M43.2412 29.8669C44.926 29.5879 45.9329 30.8929 47.1221 31.7988C48.3471 32.7304 49.5998 33.6148 50.8485 34.512C50.9357 34.5764 51.0824 34.5464 51.2013 34.5592C51.2885 34.8984 51.451 35.2418 51.455 35.581C51.4748 37.7447 51.4629 39.9084 51.459 42.0721C51.0943 41.8532 50.6701 41.6986 50.3728 41.4024C49.5482 40.5867 48.803 39.6809 47.9824 38.8609C46.5632 37.4442 45.1163 36.0575 43.6693 34.6709C43.5742 34.5807 43.4037 34.5807 43.265 34.5421C43.2571 32.988 43.2491 31.4253 43.2412 29.8669Z" fill="#FDCF20"/>
<path d="M201.984 38.6419C201.98 41.2736 201.996 43.9052 201.956 46.5369C201.944 47.3826 201.782 48.2241 201.694 49.0011C200.489 49.6193 195.808 49.585 194.488 48.911C194.285 44.459 194.075 39.9041 193.869 35.3491C195.383 35.8686 196.922 36.3237 198.408 36.9204C199.629 37.4098 200.795 38.0623 201.984 38.6419Z" fill="#87CC2D"/>
<path d="M201.984 38.642C200.794 38.0624 199.629 37.4098 198.408 36.9204C196.917 36.3237 195.383 35.8686 193.869 35.3492C193.829 33.4731 193.79 31.597 193.754 29.7209C195.066 29.399 196.362 29.4848 197.647 29.8927C199.09 30.3477 200.529 30.8114 201.968 31.275C202.015 33.4559 202.063 35.6368 202.099 37.822C202.106 38.0924 202.023 38.3672 201.984 38.642Z" fill="#A0E044"/>
<path d="M201.968 31.275C200.529 30.8157 199.086 30.352 197.647 29.8927C196.362 29.4848 195.066 29.4033 193.754 29.7209C193.754 28.5318 193.754 27.3426 193.754 26.0375C196.561 25.3463 199.165 25.3334 201.972 26.1233C201.968 27.905 201.968 29.5879 201.968 31.275Z" fill="#87CC2D"/>
<path d="M198.151 23.131C195.658 23.38 193.644 20.6325 193.604 18.6577C193.557 16.3265 196.014 13.8666 198.31 14.1156C200.593 14.3603 202.23 15.5838 202.25 18.4387C202.27 20.9373 200.292 23.4444 198.151 23.131Z" fill="#A0E044"/>
<path d="M65.6509 29.5449C65.6945 29.326 65.75 29.107 65.7738 28.8838C65.9284 27.4928 66.0711 26.0976 66.2217 24.7023C66.7014 24.595 67.1811 24.4834 67.6568 24.376C67.9026 24.4791 68.1444 24.5993 68.3941 24.6851C68.8857 24.8526 69.3812 25.0028 69.8767 25.1617C69.5199 25.1059 69.1592 25.0458 68.8024 24.9899C68.6201 24.9771 68.4417 24.9642 68.2593 24.9513C68.1047 24.9556 67.9462 24.9599 67.7916 24.9642C67.7519 24.9685 67.7083 24.9771 67.6687 24.9814C67.3555 25.0887 67.0384 25.2003 66.7767 25.2905C66.0988 27.4971 66.1147 38.3672 66.8045 40.6468C67.1176 40.7112 67.4824 40.8271 67.855 40.8529C69.5675 40.9731 71.2206 40.6296 72.7904 39.9213C75.0817 38.8823 76.6515 37.1308 76.826 34.3317C77.0281 31.0947 76.1124 28.3686 73.4167 26.5913C73.3652 26.5612 73.3176 26.5269 73.2661 26.4968L73.2265 26.4668C73.2265 26.411 73.2265 26.3551 73.2225 26.295C73.4445 26.2779 73.6665 26.2607 73.8845 26.2435C74.2651 26.4668 74.6456 26.6857 75.0262 26.909C75.5693 27.6044 76.1084 28.3042 76.8022 29.1972C77.0004 30.2017 77.2462 31.451 77.488 32.7003C77.4444 33.6791 77.3968 34.658 77.3532 35.6368C76.5841 38.1869 74.9707 39.7753 72.6636 40.6854C71.2285 41.2521 69.7856 41.6342 68.2673 41.5956C67.633 41.5784 66.9987 41.4153 66.2971 41.3079C65.5716 38.8008 65.6033 36.2979 65.639 33.795C65.6826 32.6316 65.7341 31.4725 65.7619 30.3091C65.7698 30.0515 65.6905 29.7982 65.6509 29.5449Z" fill="#E85814"/>
<path d="M223.68 28.609C223.438 28.7163 223.196 28.828 222.954 28.9353C223.192 28.2999 223.434 27.6688 223.66 27.0292C223.842 26.5226 224.005 26.0074 224.171 25.5094C225.059 24.9041 225.368 25.0586 225.559 26.1706C225.63 26.5741 225.729 26.9734 225.816 27.3769C225.674 27.5272 225.531 27.6817 225.388 27.832C225.21 27.2653 225.031 26.7029 224.793 25.9387C224.56 26.5355 224.401 26.9562 224.231 27.3683C224.052 27.7847 223.862 28.1969 223.68 28.609Z" fill="#994BDC"/>
<path d="M227.268 34.0827C227.303 34.0269 227.339 33.9711 227.375 33.9153C227.339 33.9711 227.303 34.0269 227.268 34.0827Z" fill="#994BDC"/>
<path d="M223.679 28.609C223.861 28.1969 224.052 27.7847 224.226 27.3683C224.396 26.9562 224.555 26.5355 224.789 25.9387C225.027 26.6986 225.205 27.2653 225.384 27.832C225.863 29.7553 226.343 31.6786 226.823 33.6061C226.783 33.6705 226.747 33.7349 226.708 33.7993C226.656 33.8079 226.609 33.8165 226.557 33.8208C226.505 33.8208 226.45 33.8165 226.398 33.8165C225.966 33.8079 225.534 33.8036 225.102 33.795C224.476 33.7865 223.849 33.7822 223.223 33.7736C222.795 33.765 222.371 33.7564 221.943 33.7478C221.915 33.6963 221.887 33.6491 221.859 33.5976C222.47 31.9361 223.072 30.2704 223.679 28.609ZM225.328 32.4857C225.098 31.5025 224.892 30.6096 224.682 29.7123C224.63 29.7209 224.579 29.7295 224.527 29.7381C224.178 30.6268 223.826 31.5197 223.445 32.4857C224.107 32.4857 224.646 32.4857 225.328 32.4857Z" fill="white"/>
<path d="M223.228 33.7736C223.854 33.7822 224.48 33.7865 225.107 33.7951C224.48 33.7865 223.854 33.7822 223.228 33.7736Z" fill="#BD77EF"/>
<path d="M226.402 33.8123C226.454 33.8123 226.509 33.8123 226.561 33.8165C226.505 33.8165 226.454 33.8165 226.402 33.8123Z" fill="#BD77EF"/>
<path d="M226.712 33.7951C226.752 33.7307 226.787 33.6663 226.827 33.6019C226.787 33.6663 226.752 33.7307 226.712 33.7951Z" fill="#BD77EF"/>
<path d="M221.863 33.6019C221.891 33.6534 221.919 33.7006 221.947 33.7521C221.919 33.7006 221.891 33.6491 221.863 33.6019Z" fill="#BD77EF"/>
<path d="M73.884 26.2393C73.662 26.2564 73.44 26.2736 73.222 26.2908C73.1308 26.2951 73.0397 26.3036 72.9445 26.3079C71.9218 25.9259 70.899 25.5438 69.8723 25.1574C69.3768 24.9986 68.8812 24.8483 68.3897 24.6809C68.1399 24.595 67.8981 24.4791 67.6523 24.3718C68.465 24.4276 69.3054 24.3632 70.0863 24.565C71.2399 24.8569 72.3539 25.3248 73.4718 25.7541C73.6462 25.8185 73.7532 26.0761 73.884 26.2393Z" fill="#FD7B24"/>
<path d="M131.273 29.8583C131.369 28.9696 131.468 28.0853 131.563 27.1966C132.189 25.943 132.819 24.6937 133.446 23.4402C133.589 23.2813 133.731 23.1268 133.874 22.9679C133.969 22.9679 134.06 22.9636 134.155 22.9636C134.746 22.9679 135.333 22.9765 135.923 22.9808C135.198 23.8051 134.314 24.5263 133.783 25.4794C131.916 28.8108 132.463 33.121 134.98 35.9244C137.188 38.38 141.319 38.9982 144.308 37.3883C145.913 36.5254 147.11 35.2418 148.042 33.619C148.427 33.7736 148.815 33.9281 149.2 34.0827C148.518 35.8085 147.317 37.0234 145.917 38.0667C144.157 39.3803 142.187 39.8096 140.125 39.6937C138.706 39.6164 137.347 39.2945 136.03 38.5088C133.632 37.075 132.352 34.8039 131.507 32.1594C131.277 31.451 131.341 30.6311 131.273 29.8583Z" fill="#F9B414"/>
<path d="M149.201 34.087C148.816 33.9325 148.427 33.7779 148.043 33.6234C148.324 32.4213 148.606 31.2149 148.887 30.0129C149.327 29.9614 149.771 29.9099 150.211 29.8583L150.215 29.8626C150.132 31.3223 149.882 32.739 149.347 34.087C149.3 34.087 149.248 34.087 149.201 34.087Z" fill="#F9C60B"/>
<path d="M135.924 22.9851C135.334 22.9808 134.747 22.9722 134.156 22.9679C134.537 21.9719 135.445 21.6499 136.222 21.3022C137.859 20.5767 139.579 19.8125 141.375 20.1946C143.321 20.611 145.347 20.9716 146.873 22.5772C147.571 23.3114 148.233 24.0927 148.911 24.8526C148.911 24.9041 148.911 24.9599 148.911 25.0114C148.483 25.1144 148.055 25.2132 147.623 25.3162C147.488 25.1703 147.341 25.0372 147.218 24.8783C145.387 22.5214 142.984 21.5984 140.214 21.6113C138.664 21.6199 137.272 22.2295 135.924 22.9851Z" fill="#F9C60B"/>
<path d="M133.875 22.9722C133.732 23.1311 133.589 23.2856 133.447 23.4445C133.395 23.2899 133.347 23.1311 133.296 22.9765C133.49 22.9722 133.684 22.9722 133.875 22.9722Z" fill="#F9C60B"/>
<path d="M147.623 25.3162C148.051 25.2132 148.479 25.1144 148.911 25.0114C149.795 26.4839 150.212 28.1024 150.208 29.854C149.768 29.9055 149.324 29.957 148.884 30.0085C148.864 28.3214 148.388 26.7716 147.623 25.3162Z" fill="#F9B414"/>
<path d="M98.7833 39.1399C98.6842 38.2727 98.5098 37.457 98.5098 36.6414C98.5177 32.6574 98.5732 28.6734 98.6049 24.6894C98.6089 24.0154 98.8864 23.6419 99.5127 23.5003C102.518 22.8348 107.267 25.3849 108.297 28.4631C109.233 31.2536 109.435 34.0956 107.386 36.5469C106.49 37.6159 105.32 38.2255 104.075 38.6806C102.407 39.2902 100.71 39.4662 98.7833 39.1399ZM99.7307 24.6937C99.374 29.2058 99.3581 33.6147 99.7506 38.0237C99.9329 38.0795 100.048 38.1439 100.159 38.1439C101.915 38.1354 103.62 37.8134 105.162 36.8904C106.438 36.1262 107.338 35.0358 107.659 33.3615C107.861 32.3097 107.719 31.3695 107.604 30.3692C107.457 29.0984 107.061 27.9565 106.153 27.1665C105.38 26.4968 104.48 25.9817 103.596 25.488C102.418 24.8354 101.13 24.698 99.7307 24.6937Z" fill="white"/>
<path d="M179.404 22.5215C179.511 22.7447 179.622 22.9722 179.744 23.2298C179.915 23.1654 180.05 23.1139 180.117 23.0881C180.561 24.6551 181.195 26.1706 180.724 27.832C179.737 31.318 175.697 32.7948 172.744 31.7215C172.538 31.6485 172.379 31.421 172.197 31.2665C171.911 29.927 171.622 28.5876 171.372 27.4242C171.412 26.763 171.439 26.2779 171.467 25.7885C171.578 24.5092 171.689 23.2298 171.792 22.0492C172.993 21.2893 174.088 21.1434 175.229 21.3409C176.196 21.5083 177.164 21.68 178.115 21.9204C178.563 22.0363 178.975 22.3154 179.404 22.5215ZM172.696 30.9402C175.269 31.846 177.37 31.2965 179.17 29.4161C181.16 27.3383 180.153 23.0237 177.425 22.4614C176.161 22.2038 174.861 22.0922 173.572 22.0578C172.605 22.032 172.24 22.4141 172.216 23.4702C172.173 25.2304 172.216 26.9948 172.3 28.755C172.335 29.4891 172.561 30.2147 172.696 30.9402Z" fill="#14A2CD"/>
<path d="M69.8765 25.1617C70.8992 25.5438 71.922 25.9258 72.9487 26.3079C73.0399 26.3594 73.135 26.411 73.2262 26.4625L73.2658 26.4925C73.3174 26.5226 73.3649 26.5569 73.4165 26.5913C76.1082 28.3686 77.0278 31.0947 76.8257 34.3317C76.6512 37.1351 75.0814 38.8866 72.7901 39.9213C71.2203 40.6296 69.5672 40.9731 67.8547 40.8529C67.4821 40.8271 67.1174 40.7112 66.8042 40.6468C66.1144 38.3672 66.0986 27.4971 66.7765 25.2905C67.0421 25.2003 67.3552 25.0887 67.6684 24.9814L67.7318 24.9985L67.7913 24.9599C67.9459 24.9556 68.1045 24.9513 68.2591 24.947C68.4414 24.9599 68.6198 24.9728 68.8022 24.9857C69.1589 25.0458 69.5197 25.1059 69.8765 25.1617ZM67.6962 26.046C67.2561 30.7126 67.2918 35.1559 67.6803 39.6723C69.4404 39.7968 71.0578 39.4705 72.5602 38.6806C73.3412 38.2684 74.1221 37.7146 74.6929 37.0191C75.9972 35.4264 76.0923 31.846 75.0299 29.9957C73.916 28.0595 72.251 27.042 70.2451 26.5913C69.4126 26.4024 68.5841 26.2349 67.6962 26.046Z" fill="white"/>
<path d="M68.8029 24.99C68.6205 24.9771 68.4421 24.9642 68.2598 24.9514C68.4382 24.9642 68.6205 24.9771 68.8029 24.99Z" fill="#FD7B24"/>
<path d="M73.2267 26.4625C73.1355 26.411 73.0404 26.3595 72.9492 26.3079C73.0404 26.3036 73.1355 26.2951 73.2267 26.2908C73.2228 26.3509 73.2267 26.4067 73.2267 26.4625Z" fill="#FC9836"/>
<path d="M73.4163 26.587C73.3647 26.5527 73.3172 26.5226 73.2656 26.4883C73.3172 26.5226 73.3647 26.557 73.4163 26.587Z" fill="#FC9836"/>
<path d="M67.7918 24.9642L67.7324 25.0029L67.6689 24.9857C67.7086 24.9771 67.7522 24.9685 67.7918 24.9642Z" fill="#FD7B24"/>
<path d="M147.622 25.3163C148.387 26.7716 148.863 28.3214 148.883 30.0086C148.601 31.2107 148.32 32.417 148.038 33.6191C147.107 35.2418 145.91 36.5212 144.304 37.3884C141.311 38.9983 137.184 38.3844 134.976 35.9244C132.459 33.1211 131.912 28.8108 133.779 25.4794C134.314 24.5263 135.198 23.8094 135.92 22.9808C137.272 22.2295 138.659 21.6199 140.213 21.6113C142.988 21.5985 145.386 22.5258 147.218 24.8784C147.341 25.0372 147.487 25.1703 147.622 25.3163ZM140.732 22.9594C140.241 22.9594 139.9 22.9336 139.567 22.9637C137.593 23.1526 135.987 24.0584 134.893 25.8958C133.854 27.6388 133.557 29.4891 134.009 31.5455C134.687 34.6151 136.566 36.3194 139.099 36.929C142.687 37.7876 146.857 35.2934 147.586 31.2149C147.939 29.2401 146.956 25.9259 145.513 24.7152C144.038 23.4745 142.445 22.8177 140.732 22.9594Z" fill="white"/>
<path d="M172.696 30.9402C172.557 30.2146 172.335 29.4934 172.3 28.755C172.216 26.9948 172.173 25.2304 172.216 23.4702C172.24 22.4141 172.605 22.032 173.572 22.0578C174.861 22.0921 176.161 22.2038 177.425 22.4613C180.153 23.0194 181.16 27.3383 179.17 29.4161C177.37 31.2965 175.269 31.846 172.696 30.9402ZM173.322 23.2813C173.033 25.5395 173.164 27.6903 173.548 29.8497C173.873 29.9699 174.139 30.1459 174.413 30.1545C176.216 30.2103 177.77 29.6351 178.825 27.9393C179.57 26.7372 178.837 24.3417 177.608 23.7879C176.248 23.1697 174.845 23.2513 173.322 23.2813Z" fill="white"/>
<path d="M140.748 57.0206L143.599 50.5123L137.854 50.538L140.748 57.0206Z" fill="#FFE700"/>
<path d="M152.91 6.47821L147.487 10.5695L152.482 13.682L152.91 6.47821Z" fill="#FFE700"/>
<path d="M128.574 53.5046L133.981 49.3875L128.975 46.3008L128.574 53.5046Z" fill="#FFE700"/>
<path d="M161.905 16.1334L155.349 16.7602L158.294 22.1694L161.905 16.1334Z" fill="#FFE700"/>
<path d="M119.572 43.858L126.125 43.2055L123.164 37.8091L119.572 43.858Z" fill="#FFE700"/>
<path d="M159.522 32.6917L165.381 29.4032L159.396 26.3938L159.522 32.6917Z" fill="#FFE700"/>
<path d="M121.93 27.2781L116.083 30.5924L122.077 33.5761L121.93 27.2781Z" fill="#FFE700"/>
<path d="M155.852 42.5143L162.428 42.8234L158.579 36.9677L155.852 42.5143Z" fill="#FFE700"/>
<path d="M125.601 17.4513L119.024 17.168L122.893 23.0108L125.601 17.4513Z" fill="#FFE700"/>
<path d="M148.24 49.0655L153.822 52.8949L153.108 45.7169L148.24 49.0655Z" fill="#FFE700"/>
<path d="M127.623 7.08783L128.36 14.2616L133.217 10.8958L127.623 7.08783Z" fill="#FFE700"/>
<path d="M139.642 2.97937L137.053 9.61217L142.789 9.31595L139.642 2.97937Z" fill="#FFE700"/>
</svg>
